<svg viewBox="129.774 48.05 480.645 912.95" xmlns="http://www.w3.org/2000/svg" overflow="visible">
    <g id="Master/Character/Standing" stroke="none" stroke-width="1" fill="none" fill-rule="evenodd">
        <g id="Bottom/Standing" transform="translate(39.000000, 389.000000) scale(1 1)">
            <g id="Bottom/Standing/Crossed legs" stroke="none" stroke-width="1" fill="none" fill-rule="evenodd">
                <path d="M101,519.008691 L117.454845,548.028477 C127.111006,559.331571 139.438391,564.983117 154.437002,564.983117 C176.934917,564.983117 199.279238,565.695647 204.401707,557.862745 C209.524176,550.029842 192.935786,539.518718 188.048325,539.518718 C183.160864,539.518718 161.817537,527.874742 159.96486,524.94274 C158.729742,522.988072 156.55395,515.339522 153.437484,501.997092 L172.764849,470.975941 C208.789997,474.077439 229.723091,470.800192 235.564131,461.144199 C241.405172,451.488207 249.031154,407.324795 258.442079,328.653962 L264.146768,314.311497 L297.505546,451.824914 L312.843798,459.147841 L309.362253,486.253022 L306.363699,551.371264 C311.028116,560.483806 325.021364,564.372955 348.343445,563.038712 C383.326566,561.037347 428.964293,563.038712 442.516131,540.767658 C451.364568,528.263045 420.640018,516.673766 350.34248,505.999821 L352.607872,466.973212 C389.077709,467.009158 412.755804,458.352954 423.642155,441.004601 C423.642155,440.048142 416.305614,411.743516 401.632532,356.090724 L357.191336,205.598902 L337.46981,152.01946 L345.518075,124.317216 C352.504487,86.72169 355.242562,63.6632758 353.732301,55.141973 C351.466909,42.3600188 351.168814,9.61400355 348.343445,3.92520251 C346.459865,0.132668493 309.172782,-0.911603321 236.482197,0.792387073 C222.994696,26.8245561 215.794445,44.9410847 214.881443,55.141973 C213.51194,70.4433054 213.51194,109.886191 214.881443,120.687123 C212.265434,129.402118 199.788417,179.414246 177.450392,270.723506 C140.036902,379.419053 119.442803,435.832584 115.668096,439.964097 C111.893389,444.09561 116.947244,448.049215 130.829662,451.824914 L111.566546,488.988222 L102.185796,505.999821 L101,519.008691 Z" id="Fill" fill="#FFF"/>
                <path d="M438.036085,542.373397 C434.046218,547.809977 428.44867,551.064551 422.16303,552.531875 C413.951799,554.449264 405.55921,555.569549 397.430124,557 C395.100213,552.04602 395.712561,549.048472 398.573743,546.276499 C399.944593,544.947991 402.024871,544.658431 403.759503,543.920973 C415.894459,538.755517 427.712572,536.653763 440.824724,534 C441.589626,537.790315 439.702441,540.101377 438.036085,542.373397 M392,558.491994 C391.323835,558.78263 389.366516,559.110802 387.940855,559.302772 C375.706264,560.942561 363.416675,561.322211 350.846698,560.749518 C349.502996,556.91548 348.3588,553.648772 347,549.771836 C362.248754,548.494538 377.136239,547.246196 392,546 C392,546 387.961345,547.956164 392,558.491994 M341.881572,543.399199 C334.804904,533.453259 324.523605,529.313754 313.053891,527.173922 C312.294985,527.032693 312.438155,527.021993 311,526.627194 C311.523161,521.424192 311.123793,516.394517 311.666331,511 C313.350995,512.006791 314.678274,512.689398 315.884989,513.538911 C324.00475,519.253333 332.894182,522.060793 342.934353,521.07754 C344.95595,520.879605 347.454421,520.901003 349.062657,521.894956 C359.615224,528.413954 371.372354,529.833733 383.35877,530.479962 C384.529962,530.544157 385.706536,530.50992 386.880957,530.491731 C398.891055,530.299146 399.802819,529.843362 407.825698,519.828948 C417.367467,522.137826 427.27308,523.934216 437,529.672176 C429.681128,531.493173 423.352601,533.077719 417.019769,534.640866 C408.498488,536.745391 400.076241,539.554991 391.42686,540.761856 C378.091636,542.62458 364.601401,543.38743 351.174677,544.609274 C349.424349,544.769762 347.643879,545.131393 345.924767,544.950577 C344.511371,544.801859 342.586655,544.391011 341.881572,543.399199 M320.357847,559.335074 C311.8524,557.413084 308.371914,552.291714 309.092089,543.54338 C309.409877,539.676837 309.845887,535.819964 310.223329,532.000692 C327.657216,531.89111 342.142072,544.807876 346,560.805843 C337.092166,561.163598 328.64095,561.205497 320.357847,559.335074 M346,504.516271 C345.805588,507.698989 345.60688,510.969657 345.360911,515 C339.865817,512.479112 337.361016,509.301891 338.138665,506.558927 C338.849719,504.050132 340.971065,503.422384 346,504.516271 M311.020749,493.826707 C311.268209,485.106679 312.156917,476.355369 312.662597,467 C323.927443,472.699731 334.520918,478.652952 348,478.565579 C347.244707,485.462643 346.553968,491.784771 345.870761,498.031392 C333.072734,498.503852 325.724224,505.061132 338.966605,516 C334.684457,514.664597 328.519455,514.383063 325.171203,513.034716 C322.848299,512.098424 320.801906,510.48688 318.60596,509.223749 C312.633548,505.788161 310.777592,502.368754 311.020749,493.826707 M351.365229,508 C356.02228,509.407986 360.72841,510.832383 366,512.427444 C364.222532,515.93811 362.665914,519.008986 361.151972,522 C349.983583,518.470735 348.274398,514.890052 351.365229,508 M384,515.085767 C382.009786,518.594317 380.342861,521.532491 378.376275,525 C374.462438,524.36543 370.562563,523.734017 366,522.994212 C367.979474,519.24783 369.542216,516.290713 371.280029,513 C375.45486,513.685083 379.370846,514.327019 384,515.085767 M388.422355,516 C393.293117,516.870102 397.488262,517.619446 402,518.424856 C398.112746,527.376013 390.729902,526.131778 383,525.665999 C385.042087,522.024942 386.608738,519.232422 388.422355,516 M295.30568,498.004941 C300.422737,498.332564 304.675263,501.3755 306,505.963234 C299.41357,506.273614 295.255277,504.623328 293.223794,500.840958 C292.489655,499.472651 293.659894,497.900467 295.30568,498.004941 M250.829775,368.058971 C246.12779,398.136358 240.455316,428.025713 233.947768,457.765718 C233.315822,460.65172 231.853101,462.114062 229.609045,463.46251 C219.529065,469.518172 208.410885,470.877366 196.947715,470.995556 C180.578359,471.165321 165.37832,466.452735 150.643642,459.97481 C141.362193,455.894007 132.274196,451.369452 123.151808,446.937301 C121.097981,445.939126 119.263401,444.488604 117,443.035933 C117.835073,440.714023 118.508934,438.717674 119.265551,436.754634 C131.533701,404.899015 144.049041,373.134725 156.030236,341.17166 C172.701594,296.698646 184.724704,250.881481 195.040052,204.564692 C200.126794,181.724875 206.02174,159.064493 211.573843,136.327824 C211.985469,134.636622 212.731338,131.583004 213.522346,129 C214.251019,131.078008 214.691663,132.931453 214.92703,133.880202 C221.504436,160.379633 227.843249,186.940308 234.70331,213.365601 C237.288059,223.32478 237.323525,233.445128 238.295089,243.509604 C240.619751,267.593647 242.534936,291.719594 244.986417,315.789668 C246.645815,332.086018 248.945757,348.316825 250.921128,364.582016 C251.059769,365.723093 251.007107,366.922192 250.829775,368.058971 M157.704215,489.179191 C156.853269,486.387852 154.172248,484.908644 152.188142,484.700065 C149.85504,484.45424 147.158939,485.201293 145.015415,486.282498 C143.01946,487.287083 141.541614,489.295187 139.685688,491 C131.866673,487.48502 125.214209,477.659463 122,472.514162 C122,472.514162 124.225387,468.090373 125.345621,465 C141.781818,471.847986 141.781818,471.847986 167,474.375409 C163.932283,479.126965 160.592048,484.705386 157.704215,489.179191 M156,522.34756 C153.187533,523.810691 150.557871,525.177689 147.055157,527 C146.268254,525.064652 144.944493,523.047961 144,518.538136 C147.588864,517.962392 150.511644,517.492288 153.576256,517 C154.429347,518.882527 155.117493,520.401648 156,522.34756 M171,536.21247 C163.003639,538.204532 157.017339,536.414061 151,530.878992 C154.01081,529.328045 156.465054,528.064311 158.533983,527 C162.684684,530.067211 166.387991,532.803856 171,536.21247 M144,493.902847 C145.795339,490.720237 147.665801,488.80801 151.249945,489.015307 C156.16018,491.704618 153.386061,494.463767 151.421967,498 C148.912412,496.614329 146.635849,495.358356 144,493.902847 M153,512.131312 C149.986134,512.691698 142.944576,514 142.944576,514 C140.210119,505.141932 140.893733,501.475156 141.790494,499.969394 C142.195803,499.290974 142.992065,498.921429 143.776178,499.014091 C151.035299,499.87232 151.521229,506.017811 153,512.131312 M194,545.787821 C192.579418,545.787821 191.151325,545.700165 189.737181,545.801718 C181.020558,546.430279 172.293206,546.972253 163.59375,547.790024 C150.338561,549.035387 132.416052,544.981809 123.727326,529.136298 C121.834647,525.686695 120.428013,521.570047 120.219861,517.6843 C119.722014,508.390575 117.323977,499.772447 113,491.18425 C115.095466,487.411815 117.310029,483.424514 119.767078,479 C122.763819,482.668744 125.070656,486.001828 127.898944,488.812181 C130.764786,491.659947 134.924602,494.860477 138.456744,497.72321 C137.183156,499.159921 137.207834,503.896577 137.781861,507.47232 C138.820473,513.934313 139.690634,520.603688 142.051117,526.634881 C146.793544,538.746441 159.123853,544.990361 171.506736,541.19227 C173.602202,540.548744 175.934789,539.697834 175.934789,539.697834 C177.868239,540.355258 188.545137,542.995642 194,545.787821 M201.80179,550.369239 C202.710597,557.525829 200.504262,560.257838 194.974962,561.284992 C181.587274,563.771377 168.11775,563.014409 154,562.33671 C155.871455,556.198343 159.058744,553.111296 164.5622,552.244913 C177.380268,550.225214 187.965081,549.48276 201.80179,550.369239 M129.175762,557.034136 C124.23629,553.923176 119.462952,548.09979 115,541.087933 C116.064284,538.148568 117.181298,535.060004 118.650204,531 C126.600589,544.479255 138.259289,550.728263 153,552.846478 C151.201801,556.038503 149.714601,559.562691 148.340394,562 C143.363856,561.588947 136.22273,561.472433 129.175762,557.034136 Z M112.137699,535 C101.384217,520.218722 99.4685524,509.563301 109.908659,496 C115.688923,509.074175 116.708465,521.76565 112.137699,535 M109.191161,467.537247 C108.948257,467.101987 108.969723,466.534117 109.074793,465.925608 C109.277024,464.735327 110.411327,463.891543 111.678945,464.01132 C112.273211,464.068 112.809858,464.186707 113.173649,464.490426 C115.381246,466.333063 117.820449,468.313657 116.732467,472 C113.410903,471.416088 110.685865,470.209766 109.191161,467.537247 M422.851049,518.73702 C411.534998,515.890153 400.013024,513.874025 388.588649,511.451663 C377.550378,509.112052 366.530339,506.689689 355.498503,504.316763 C353.989481,503.992205 352.031078,503.639705 351.285684,502.726214 C351.285684,502.726214 350.929611,500.056672 351.093705,498.426359 C352.069689,488.765926 353.233362,479.125911 354.374512,469.03345 C357.431166,469.03345 359.927969,469.100081 362.420481,469.021629 C374.533408,468.64656 386.542301,467.546072 398.083579,463.488024 C406.632555,460.481027 414.418977,456.355273 420.716754,449.515914 C425.313532,444.522881 426.401057,439.056982 424.823395,432.748522 C422.790989,424.613081 420.929111,416.429278 418.662898,408.358318 C408.330338,371.538192 398.082507,334.691198 387.407816,297.968869 C379.075487,269.308902 370.514713,240.704819 361.371567,212.297406 C356.177402,196.153337 349.77988,180.385412 343.567903,164.589544 C341.364968,158.98501 340.960632,153.995201 342.295907,147.880186 C346.413272,129.022512 349.501028,109.934854 352.791488,90.9020049 C355.227158,76.8170519 356.377961,62.6192559 355.125269,48.3215132 C354.239376,38.2075583 353.192607,28.1064998 352.21984,17.998993 C351.663208,12.2053121 351.109792,6.41163125 350.495244,0 L350.431966,0 C348.606554,0 347.042835,1.19721098 346.429359,2.91887242 C346.344631,3.15638002 346.252395,3.39388762 346.150507,3.635694 C346.107607,3.73779003 346.056126,3.83988605 346.008936,3.94305678 C346.023951,3.938758 346.037893,3.93553391 346.052909,3.93123513 C346.79723,10.7104114 347.539407,16.6524002 348.085315,22.6115841 C349.153535,34.2763239 350.640033,45.9378397 350.941408,57.6272975 C351.166636,66.3538211 350.231407,75.181366 349.046284,83.8584537 C347.04069,98.5527588 344.437709,113.165387 342.058882,127.807032 C341.905513,128.746316 341.607355,132.00694 341.121508,133.599638 C340.027548,132.23585 337.659446,128.320736 337.027738,127.310523 C330.731033,117.222361 325.823228,107.837049 319.678819,97.6575378 C318.392879,95.5253429 317.789056,92.9697181 316.942846,90.5838952 C314.868612,84.7321807 312.837278,78.8664953 310.635416,72.5677077 C314.142523,71.8530355 317.318225,71.2340112 320.479984,70.5537293 C322.382616,70.1453451 324.356034,69.8519534 326.116023,69.0899946 C326.299422,69.0104672 326.461371,68.8825785 326.608305,68.7213742 C327.547824,67.6928911 327.18317,66.0099187 325.972307,65.3221139 C325.688091,65.1598349 325.399586,65.0040041 325.105719,64.8589203 C324.807561,64.7116871 324.338874,64.8750407 323.957061,64.9405971 C318.97418,65.7992785 313.999879,66.7063211 309.009491,67.5155664 C306.309983,67.9529673 305.459483,69.7788741 305.588184,72.1184852 C305.660042,73.437136 306.274591,74.7439652 306.738987,76.0228522 C323.048645,120.951553 340.052216,165.641671 355.465255,210.875584 C367.287531,245.572113 377.363761,280.879069 387.734931,316.055987 C396.892021,347.118972 405.473172,378.353908 414.109021,409.56735 C416.500718,418.208973 418.083743,427.070908 420.234125,435.783461 C421.167209,439.566387 420.314563,442.591654 417.887473,445.536318 C412.467009,452.109153 405.276903,455.857689 397.516221,458.718527 C388.100657,462.187643 378.271105,463.779266 368.316068,464.057612 C352.707832,464.496088 337.097451,463.974861 321.923582,459.826538 C315.571106,458.090905 309.477105,455.389122 303.302666,453.029092 C300.155922,451.825433 298.557882,449.503017 297.872548,446.062919 C289.136956,402.218586 277.996796,358.947065 266.710775,315.713159 C252.370245,260.781197 237.913885,205.880402 223.676317,150.922647 C221.232067,141.491124 219.076322,131.917741 217.751772,122.276652 C214.966464,102.004679 212.716339,81.6553289 215.877025,61.1587453 C217.700292,49.3295772 220.650766,37.8453861 225.620777,26.9297087 C227.302473,23.2349072 235.257875,6.37724101 236.876293,2.91994711 C236.881655,2.91994711 236.887018,2.91994711 236.89238,2.91887242 C236.672516,2.31166973 236.396881,1.71951277 236.08478,1.13702806 C235.491683,0.026868098 233.903295,0.00644889246 233.245847,1.07791983 L233.229759,1.10478721 C224.246417,15.6507844 213.477821,44.8706675 211.132242,61.6488063 C209.091255,76.2474635 209.35402,90.8654653 210.904869,105.474869 C211.590203,111.929488 211.48188,118.175615 209.83665,124.59047 C203.09807,150.862465 196.139626,177.100069 190.342711,203.587003 C178.759604,256.502836 163.834557,308.380515 144.415694,358.940617 C134.20111,385.536095 123.780604,412.05312 113.473784,438.614207 C111.220441,444.422934 111.218296,444.503536 116.458579,448.071524 C119.132346,449.894206 121.995948,451.434244 124.892797,453.173101 C123.096343,457.164518 120.948105,462.185493 119.218147,466.032902 C118.028734,462.242452 116.434984,461.31714 114.736128,460.127452 C112.307966,458.427285 109.649214,458.265006 107.035508,459.851256 C104.58804,461.337559 102.940665,464.575615 104.0239,467.44935 C104.933388,469.86204 106.686942,472.099555 108.517716,473.971674 C109.939864,475.426811 112.058071,476.199517 114.247064,477.500972 C112.920369,480.257565 111.797451,482.924958 110.393536,485.435446 C107.82273,490.034066 105.12215,494.561756 102.411918,499.079774 C96.5603039,508.834781 96.6729175,518.648896 101.899258,528.608094 C107.475237,539.234679 114.679285,548.666202 122.80462,557.427116 C126.375005,561.277748 130.73583,563.582969 135.963243,564.415858 C154.155156,567.315385 172.426433,567.596955 190.743829,566.141818 C193.626736,565.912908 196.540745,565.257344 199.292805,564.349227 C204.48268,562.637238 206.797157,558.381445 207.857869,553.373367 C208.854231,548.669426 205.427562,546.213748 202.366618,543.887034 C200.070375,542.141729 197.434146,540.730654 194.762524,539.624793 C191.172833,538.13849 187.361133,537.200281 183.717817,535.830045 C163.649013,528.28891 161.723858,526.676867 155.821836,506.498394 C155.71244,506.1244 155.446457,505.748256 155.47327,505.390383 C155.585884,503.893333 155.425007,502.242601 156.005235,500.933623 C160.532299,490.726169 167.615154,482.140431 172.790014,473.627771 C182.779371,474.226377 191.694073,475.135569 200.61521,475.20005 C211.046441,475.276354 221.095858,473.166727 230.426694,468.076972 C235.092112,465.532094 237.694021,462.489632 238.915609,456.75506 C246.3599,421.800604 252.383115,386.603267 258.101738,351.342523 C259.596817,342.127013 261.468346,329.619712 263.041718,320.417099 C264.203247,323.076969 264.822085,326.830879 265.233929,328.463341 C270.286522,348.521449 275.508573,368.539793 280.281242,388.664532 C285.100029,408.979492 289.516624,429.3901 293.966468,449.791036 C294.558493,452.507865 295.547347,454.372461 298.163199,455.548177 C301.681031,457.131203 305.045494,459.058131 308.815366,461.014076 C308.12038,472.972207 307.426466,484.913144 306.698232,497.462358 C303.989072,495.961009 302.231228,494.70684 300.276043,493.979271 C298.30906,493.246329 296.154388,492.699309 294.071573,492.663844 C288.478435,492.569271 285.922644,496.341451 287.995805,501.548348 C289.89522,506.315695 293.800228,508.827258 298.478516,510.235108 C300.845546,510.947631 303.295158,511.382882 305.743698,511.952471 C305.743698,514.778919 305.838079,517.301228 305.726538,519.816014 C305.325419,528.785419 304.850298,537.7516 304.410568,546.71778 C304.051278,554.066545 307.56482,559.278816 314.071737,561.913968 C318.496913,563.705485 323.422951,564.991894 328.162372,565.128381 C343.355546,565.567931 358.579824,566.003182 373.771926,565.402428 C389.184965,564.793076 395.318649,563.812954 406.820244,561.926864 C414.136907,560.72643 422.951865,557.745226 429.781608,554.657627 C436.096546,551.803237 441.334684,547.697902 444.607984,541.461447 C447.762235,535.448528 445.376974,528.143826 439.261522,525.214207 C433.956889,522.671479 428.508539,520.160991 422.851049,518.73702 Z" id="Stroke" fill="#000"/>
            </g>
        </g>
        <g id="Head" transform="translate(195.000000, 0.000000) scale(1 1)">
            <g id="Head/Ponytail" stroke="none" stroke-width="1" fill="none" fill-rule="evenodd">
                <path d="M46.1166089,53.1390745 C60.8062088,54.4131111 71.5699844,58.4414477 78.4079354,65.2240843 L77,58.9928179 L77.7271855,58.6897883 C82.7239665,56.6434474 85.7568864,56.1692953 86.8259453,57.2673318 C87.9459117,58.4176559 89.1807845,61.8427775 90.5305639,67.5426967 C101.4593,63.3701465 109.667132,61.5509465 115.15406,62.0850968 L116.278222,62.201363 C125.605961,63.2184407 150.739263,67.1766181 156.826112,77.5202702 C159.636223,82.2956164 161.41084,85.9807435 162.149963,88.5756514 C176.485825,102.65789 182.088159,119.247802 178.957324,138.344408 C176.084942,155.86458 160.715258,166.987632 132.848274,171.713563 L131.999995,171.854814 L134.131586,194.883519 C135.321107,197.132934 136,199.731717 136,202.5 C136,211.060414 129.508129,218 121.5,218 C113.491871,218 107,211.060414 107,202.5 C107,200.113309 107.50463,197.852609 108.406056,195.833169 L108.296275,192.241697 C107.919493,180.503387 107.434282,171.097691 106.841002,164.024037 L104.808271,166.666017 L103.417111,166.265416 C84.5786787,160.775988 72.8778978,154.690357 68.314768,148.008523 L67.5143872,146.808503 C60.4227411,136.313477 46.253918,119.293404 60.7539006,87.1003804 C56.4556053,81.3502651 55.3688563,76.8037483 57.4936535,73.4608302 C51.5461452,73.6617279 47.753797,75.3166527 46.1166089,78.4256047 L45.968098,78.7137283 C43.5497119,83.5074351 40.3502717,94.94289 45.94089,121.734835 L46.1166089,122.568358 C50.0842198,141.200316 49.2295511,158.84694 43.5526027,175.508229 C38.901377,181.31517 34.4602639,182.333632 30.2292634,178.563617 L30.0178884,178.371126 C25.7234917,174.376001 20.7684721,173.421703 15.1528297,175.508229 C7.72170814,178.795669 2.3261424,178.236716 -1.03386754,173.831371 L-1.20883061,173.595959 C-4.55511205,168.975998 -10.2428828,167.688151 -18.272143,169.732418 L-16.7608752,168.263263 C-5.04875659,156.821304 1.69087602,148.883095 3.45802264,144.448636 C6.22074481,137.515891 9.13633106,77.9990219 13.144298,73.4608302 C17.152265,68.9226384 24.0822089,51.2280196 46.1166089,53.1390745 Z" id="Path" fill="#FFF"/>
                <path d="M53.0176,52.2189 C58.2306,53.4599 63.2236,55.9219 68.0686,58.3249 C72.3906,60.4679 72.2126,60.7429 75.8456,57.6949 C76.9476,56.7699 78.1556,55.8869 79.4566,55.2949 C83.7626,53.3389 87.8346,54.8039 89.9906,59.0619 C90.7086,60.4779 91.1326,62.0429 91.8216,63.8889 C100.3426,60.9469 108.9646,60.0479 117.7086,60.5319 C130.2476,61.2249 142.0786,64.2529 152.5796,71.5189 C157.5006,74.9249 161.0586,79.4689 163.6826,84.7299 C164.163022,85.693797 164.51913,86.5828535 164.747115,87.4054078 C165.564601,88.6530927 166.583602,90.1265643 167.887969,91.877557 C173.486969,99.393698 175.666351,104.74155 179.182795,111.941441 C184.175795,122.164571 184.175795,134.344441 178.023795,145.195441 C173.545795,153.096441 170.231795,159.302441 162.604795,164.152441 C154.867795,169.072441 146.434795,172.325441 137.467795,174.211441 C136.433795,174.429441 135.410795,174.701441 133.934795,175.055441 C134.885795,180.408441 135.800795,185.544441 136.709795,190.682441 C137.088795,192.826441 137.467795,194.971441 137.821795,197.120441 C138.112795,198.889441 138.843795,201.268441 136.509795,201.736441 C134.339795,202.261441 133.886795,199.266441 133.415795,196.646441 C132.454795,191.305441 132.868795,191.745441 131.801795,187.476441 C130.149795,180.871441 130.310795,180.858441 127.469795,179.075441 C126.811795,178.785441 124.846795,177.312441 123.460795,176.388441 C122.815795,175.959441 122.227795,175.455441 121.738795,174.854441 C121.329795,174.351441 121.207795,174.027441 121.258795,173.130441 C121.403795,170.569441 124.111795,170.880441 126.007795,170.623441 C128.344795,170.307441 130.717795,170.262441 133.055795,169.951441 C150.000795,167.693441 161.260795,160.475441 171.492795,146.526441 C179.331795,135.840441 179.799126,123.467587 174.744002,113.148022 C171.742593,107.020925 168.969138,100.658205 162.826624,93.5682385 C161.969023,94.214557 160.856924,94.7889098 159.4816,95.3119 C153.2496,97.6809 146.6716,97.8469 140.1196,97.3219 C129.7896,96.4949 119.4916,95.3909 109.7926,91.3019 C109.1806,91.0439 109.7926,91.3019 106.8196,90.1769 C106.8196,93.2779 107.0006,96.9979 106.9336,99.8479 C106.8076,105.2279 105.2126,110.2169 102.6166,114.8829 C101.8296,116.2979 100.8446,117.6429 99.7506,118.8349 C99.1787019,119.457749 98.4873295,120.130875 97.7373336,120.437175 C97.6722895,120.513558 97.6023659,120.581171 97.5275946,120.636741 C96.2445946,121.589741 94.5995946,122.037741 93.1615946,122.800741 C90.6095946,124.153741 87.8185946,125.245741 85.6255946,127.051741 C78.4145946,132.988741 79.8735946,142.202741 88.5275946,145.633741 C90.8375946,146.549741 93.4415946,146.814741 95.9415946,147.133741 C97.5415946,147.337741 99.2015946,147.139741 100.830595,147.044741 C106.198595,146.731741 106.591595,147.112741 106.836595,152.652741 C107.052595,157.545741 107.227595,162.443741 107.620595,167.322741 C108.450595,177.625741 109.386595,187.920741 110.340595,198.212741 C110.430595,199.185741 110.671595,200.172741 110.448595,201.150741 C110.038595,202.951741 107.453595,203.004741 106.840595,201.261741 C106.397595,200.001741 106.020595,198.836741 105.918595,197.647741 C105.075079,187.773651 104.317406,177.892322 103.562648,168.010818 C102.903569,167.934304 102.227417,167.72902 101.658845,167.543284 C96.8378454,165.971284 87.8276,164.5049 83.4456,162.0719 C65.3846,152.0409 53.7716,137.2319 51.5336,116.1719 C50.4356,105.8369 53.7236,96.4509 59.1316,87.3899 C55.7336,84.8099 53.3376,81.5969 54.2376,76.4129 C49.2486,77.8079 47.0526,80.6519 45.8486,84.4279 C43.8226,90.7819 43.5886,97.3469 44.4696,103.8549 C45.5646,111.9449 47.1476,119.9709 48.5676,128.0159 C50.4346,138.5879 52.3576,149.1539 50.1716,159.9219 C49.8136,161.6899 49.4456,163.4879 48.7626,165.1409 C48.5076,165.7579 47.0286,166.5239 46.6536,166.3009 C45.8946,165.8519 45.0606,164.7729 45.0606,163.9539 C45.0616,162.1639 45.5096,160.3629 45.8696,158.5859 C47.9046,148.5239 45.8566,138.6989 44.2056,128.8459 C42.7066,119.8949 40.7926,110.9809 39.9426,101.9679 C39.4236,96.4609 40.0076,90.6859 41.0946,85.2299 C42.8686,76.3289 47.8936,72.3499 56.9096,71.3999 C57.4456,71.3439 57.9716,71.1919 58.4056,71.1049 C58.9506,68.8379 60.1056,65.5639 65.4616,61.5479 C64.5256,60.9609 62.6136,60.1819 61.3596,59.6529 C54.0816,56.5859 46.6456,54.5349 38.5926,55.8579 C29.1156,57.4149 22.2696,62.5399 17.6976,70.8389 C13.4006,78.6399 11.8526,87.2159 10.9686,95.9299 C9.8136,107.3139 8.9866,118.7349 7.6716,130.0989 C6.0476,144.1379 0.3666,156.2399 -10.4274,165.6919 C-13.5714,168.4459 -16.6044,171.3269 -19.7324,174.1009 C-20.9864,175.2129 -22.6164,176.3789 -23.8684,174.5639 C-24.3224,173.9069 -23.5194,171.9139 -22.7454,170.9809 C-21.3684,169.3199 -19.6724,167.8749 -17.9424,166.5589 C-2.9314,155.1359 3.1626,139.3999 4.4776,121.1659 C5.2876,109.9379 6.3906,98.7229 7.7426,87.5479 C8.2606,83.2679 9.4856,78.9839 10.9946,74.9269 C17.9506,56.2269 33.6786,47.6169 53.0176,52.2189 Z M23.6899,151.8892 C24.1139,151.9552 24.4869,152.3462 24.8229,152.8432 C25.6419,154.0522 25.9279,155.5512 25.7209,156.9962 C25.4729,158.7252 25.3049,160.1942 24.7159,161.4672 C21.5319,168.3432 18.1079,175.1092 14.7399,181.8992 C14.4249,182.5342 13.9159,183.0912 13.4279,183.6202 C12.2189,184.9292 10.6799,185.7742 9.1799,184.4412 C7.6819,183.1122 9.0849,181.9852 9.9039,180.7732 C15.1899,172.9512 19.8749,164.8352 21.4289,155.3212 C21.6839,153.7602 21.4469,151.5412 23.6899,151.8892 Z M36.074,156.0418 C36.436,157.0248 36.533,158.1988 36.407,159.2508 C35.4,167.6348 32.744,175.4928 28.534,182.8058 C28.211,183.3678 27.857,183.9008 27.426,184.3588 C25.664,186.2338 22.573,184.0158 23.897,181.8078 C23.903,181.7978 23.908,181.7878 23.915,181.7778 C28.416,174.3878 31.311,166.4798 31.91,157.7958 C31.947,157.2548 31.821,156.5498 32.11,156.2108 C32.738,155.4718 33.51,154.6518 34.376,154.4098 C34.783,154.2968 35.817,155.3408 36.074,156.0418 Z M11.5241,149.2221 C11.9281,149.3171 12.2441,149.7851 12.5241,150.3881 C13.2321,151.9091 13.3141,153.6421 12.8711,155.2601 C12.2411,157.5651 11.7291,159.7271 10.5841,161.4731 C7.1241,166.7511 3.1481,171.6951 -0.7189,176.6961 C-1.3329,177.4891 -2.4259,178.2111 -3.3869,178.3491 C-4.2749,178.4771 -5.6739,178.0341 -6.1119,177.3611 C-6.4619,176.8261 -5.9639,175.3491 -5.3929,174.6661 C-2.2759,170.9361 1.3831,167.5921 4.0621,163.5841 C6.2121,160.3671 7.3791,156.4471 8.6851,152.7341 C9.2711,151.0691 8.9461,148.6161 11.5241,149.2221 Z M95.4616,67.4139 C94.0206,67.8199 91.9816,67.9079 91.9816,67.9079 C91.9816,67.9079 91.2696,71.1829 89.0156,73.0479 C83.3366,77.7469 79.2016,82.0409 73.3396,79.6589 C71.4816,83.8359 67.6676,86.7599 64.4466,87.9929 C64.4466,87.9929 63.5816,89.1129 62.7876,90.2959 C58.4306,96.7889 55.8416,104.0269 55.8576,111.7889 C55.8786,121.7749 58.5216,131.1329 64.4956,139.4149 C73.1076,151.3539 88.0528454,159.949284 102.603845,163.266284 C102.798385,163.31057 103.002267,163.352047 103.210127,163.394335 C103.032384,161.073208 102.854302,158.752403 102.674595,156.431741 L102.625927,155.820184 C102.525431,154.589904 102.405309,153.294027 102.253595,151.525741 C100.169595,151.525741 98.2475946,151.539741 96.3255946,151.523741 C92.0005946,151.486741 87.9005946,150.585741 84.1995946,148.300741 C76.9335946,143.817741 74.7955946,134.743741 79.5015946,127.620741 C83.2769083,121.907521 89.2463975,119.695454 95.1772271,117.476773 C95.4997552,116.926667 95.9917738,116.390192 96.4406,115.8679 C100.6486,110.9649 102.3206,105.0879 102.6046,98.7749 C102.7596,95.3279 102.5416,91.8639 102.6856,88.4159 C102.8166,85.2819 103.8036,84.5859 106.8466,85.4849 C109.4526,86.2559 111.9516,87.3809 114.5356,88.2369 C126.5886,92.2289 138.9526,93.5769 151.5996,92.5559 C154.39497,92.3299741 156.816541,91.4730468 158.911148,89.3802179 L159.094409,89.1919137 C159.0492,88.9361219 159.078836,88.6611948 159.199592,88.34266 C156.265682,81.1618428 151.694545,75.375744 144.7586,71.9869 C128.9676,64.2729 112.4816,62.6229 95.4616,67.4139 Z M79.1486,60.9219 C79.6766,62.8689 80.7756,64.6209 80.3066,65.6799 C79.4066,67.7159 77.5356,66.3159 76.0616,65.8579 C75.2016,65.5899 74.3746,65.1799 73.4986,65.0079 C69.9566,64.3159 66.9676,65.5149 65.1296,68.6059 C63.4696,71.4009 63.3606,75.2909 59.3906,76.4049 C59.1656,76.4679 58.9106,77.0509 58.9566,77.3469 C59.1926,78.8539 59.0416,80.7879 59.9226,81.7499 C61.5626,83.5399 64.0836,83.5179 65.7656,81.7889 C67.8846,79.6119 69.5116,76.9599 71.3836,74.5379 C72.2146,73.4629 73.0796,72.4149 73.9416,71.3649 C74.0846,71.4049 74.2286,71.4339 74.3746,71.4549 C76.0086,71.6929 77.2066,73.1239 76.9386,74.7529 C76.8736,75.1469 76.8466,75.5399 76.9006,75.9159 C82.5876,74.4009 86.7706,69.7789 86.8246,64.9749 C86.8486,62.7829 86.5726,60.4429 84.2736,59.3889 C81.9306,58.3149 80.2416,59.6269 79.1486,60.9219 Z" id="Stroke" fill="#000"/>
            </g>
        </g>
        <g id="Body" transform="translate(28.000000, 114.000000) scale(1 1)">
            <g id="Body/Computer" stroke="none" stroke-width="1" fill="none" fill-rule="evenodd">
                <path d="M267.48354,81.764519 L239.446984,85.8799087 L196.245878,106.78899 L178.220343,130.762501 L162.528379,168.344062 L151.078176,210.502705 L144,234.287858 L146.406178,257.551606 L152.1312,275.081705 L175.914564,286.293977 L220.243778,286.293977 L253.891112,284.453318 L263.198064,290.34936 L278.411452,297.498099 L311.740599,303 L357.330499,303 L409.408178,287.436696 L411.545537,276.479035 L448.011297,254.814453 L507.192801,215.177362 L503.443805,201.155998 L565.550433,180.854961 L569,174.195803 L564.584226,171.709697 L565.550433,165.441717 L558.729888,162.825666 L556.477795,154.397053 L522.878743,164.312058 L527.939814,152.701646 L524.930064,149.610092 L491.159033,173.398974 L477.784145,165.441717 L431.675848,179.713934 L427.429421,172.074261 L416.831216,140.777405 L398.19894,110.686571 L373.547203,90.0379536 L347.441038,83.0459132 L307.825299,79.0133451 L302.973869,77.3032274 C287.843042,76.7021322 278.14528,76.9947115 273.880584,78.1809652 C269.615888,79.367219 267.48354,80.5617369 267.48354,81.764519 Z" id="Fill" fill="#FFF"/>
                <path d="M298.8163,80.0255 C316.2173,81.1265 333.6283,82.1315 351.0073,83.5305 C361.0173,84.3365 369.9973,88.3255 377.9703,94.3665 C389.7683,103.3035 399.9373,113.7175 408.6803,125.8115 C418.4173,139.2775 425.4013,153.7835 429.6603,169.7315 C429.8433,170.4155 430.1783,171.0585 430.6613,172.2705 C432.6983,171.5245 434.5893,170.8945 436.4483,170.1075 C447.3433,165.4975 458.2713,160.9525 469.4023,156.9465 C479.5673,153.2895 477.8433,152.1355 486.8053,159.9415 C487.6193,160.6505 488.4063,161.3875 489.6913,162.5515 C493.4563,159.3815 497.2373,156.3515 500.8423,153.1255 C504.7683,149.6105 508.4243,145.7905 512.4083,142.3465 C514.5783,140.4715 517.1093,138.9685 519.6203,137.5505 C521.4353,136.5265 523.5093,136.3645 525.2233,137.9175 C527.0263,139.5505 527.3603,141.6755 526.6443,143.9195 C526.0953,145.6405 525.3593,147.3015 524.3453,149.9245 C527.5283,148.8225 530.1583,148.0265 532.6983,147.0055 C536.9543,145.2945 541.1423,143.4165 545.3773,141.6525 C546.4253,141.2155 547.4963,140.8355 548.5923,140.5415 C554.7753,138.8845 558.0513,140.7565 557.3603,146.7755 C558.4033,147.0875 560.8863,147.2105 561.9113,147.8335 C563.2463,148.6445 564.8873,150.1425 565.1893,151.3895 C565.5853,153.0275 564.5753,156.7355 564.5753,156.7355 C567.5623,157.5665 567.6863,158.0575 568.6523,159.3485 C569.1273,159.9835 569.4473,160.7445 569.439447,161.5385 C569.4313,162.3435 569.1203,162.8265 568.8793,163.5955 C567.5043,167.9645 564.1443,170.1015 560.0553,171.7705 C544.2613,178.2155 528.5523,184.8635 512.8273,191.4765 C511.1693,192.1735 509.6223,193.1335 507.8003,194.0885 C508.9373,197.3925 509.9373,200.6225 511.1723,203.7595 C511.9053,205.6235 511.3703,206.9345 509.9943,208.0805 C507.8993,209.8245 505.8173,211.5915 503.6393,213.2285 C481.5533,229.8185 459.5273,246.4905 437.2983,262.8865 C431.3493,267.2745 424.7663,270.7995 418.3053,274.8255 C418.4153,276.6085 419.0483,278.7185 418.5453,280.5095 C417.6373,283.7465 416.1263,286.4275 412.5723,288.2215 C391.3733,298.9195 368.9613,304.9425 345.3913,307.3525 C324.1003,309.5295 302.8963,309.9135 282.0183,304.7515 C272.3673,302.3645 263.0523,298.6035 253.6213,295.3595 C251.5233,294.6375 249.6633,294.2585 247.3543,294.8155 C231.4173,298.6545 215.2393,301.1545 198.8423,301.1615 C190.9123,301.1645 182.8063,300.4675 175.0893,298.7195 C159.7713,295.2485 149.2273,282.0855 147.5213,265.2515 C146.3823,254.0145 147.1423,242.8405 149.4863,231.7435 C152.6013,216.9985 155.2823,202.1615 158.4163,187.4205 C161.7503,171.7385 167.0283,156.6815 173.4093,141.9685 C179.6123,127.6695 189.2753,116.5565 202.3123,108.0835 C215.6993,99.3815 229.9883,92.9745 245.5133,89.1915 C250.4133,87.9975 255.1253,86.0305 259.9213,84.4145 C261.2963,83.9505 262.6383,83.3405 264.0473,83.0325 C267.0093,82.3845 267.9853,83.0085 268.5853,86.0295 C269.3963,90.1095 270.0543,94.2185 270.8323,98.6195 C279.6473,101.6125 287.0493,99.6825 294.3823,94.7505 C293.8523,90.9955 293.3203,87.2215 292.7373,83.0855 C292.5333,81.6445 293.5753,80.3195 295.0243,80.1845 C296.4073,80.0545 297.6173,79.9495 298.8163,80.0255 Z M401.1633,223.0875 C400.7543,227.5865 396.8013,231.8985 401.0223,235.0405 C399.6333,237.9635 400.2753,241.1685 399.8043,243.8525 C398.9713,248.5955 396.4643,250.8265 391.8833,251.2625 C389.3663,251.5025 386.9913,251.7195 385.5633,254.5895 C384.9313,255.8585 382.7603,256.3595 381.1173,257.3075 C380.1873,255.6815 379.5973,254.6515 378.9773,253.5685 C373.4273,254.4385 368.0603,255.2795 363.2673,256.0315 C359.6463,260.3165 359.4403,267.6185 351.4313,266.3395 C351.0013,266.2715 350.4513,266.7725 349.9973,267.0685 C338.7413,274.4285 326.1983,275.6205 313.3283,274.1485 C306.1213,273.3235 299.7683,274.6325 293.0903,275.9265 C289.1373,276.6925 290.2083,280.1175 290.3233,282.4795 C290.4953,285.9755 289.2233,289.6545 292.1883,292.7215 C292.6743,293.2235 292.2133,294.6395 292.1903,295.6325 C291.0573,295.4765 289.7163,295.6445 288.8443,295.0825 C287.7163,294.3565 286.9623,293.0475 286.0973,292.0475 C283.5943,292.8055 281.3353,293.4535 279.1003,294.1775 C276.8033,294.9225 274.5303,295.7415 272.2473,296.5275 C274.0573,298.1085 275.8743,298.7865 277.7353,299.3115 C279.6293,299.8455 281.5663,300.2285 282.4773,300.4425 C284.9783,299.1465 286.5903,298.3115 288.2023,297.4765 C288.6543,298.8945 289.1053,300.3115 289.7413,302.3095 C325.3563,307.1155 360.2973,304.0595 395.6743,291.2185 C393.7683,289.7045 392.6503,289.0735 391.9063,288.1435 C391.3223,287.4115 390.7183,286.1115 391.0013,285.4265 C391.3153,284.6665 392.6473,283.8625 393.4973,283.9015 C394.6393,283.9555 395.9073,284.5995 396.8253,285.3525 C398.0573,286.3615 399.0053,287.7175 400.2813,289.1565 C404.2353,287.2335 408.1383,285.3325 412.0443,283.4355 C414.1293,282.4225 414.7693,280.8835 414.3603,278.5465 C413.2643,272.2925 412.3463,266.0075 411.4173,259.7265 C410.9373,256.4775 410.2753,253.6705 407.0713,251.5785 C403.5143,249.2565 403.8433,247.3355 407.2393,244.3885 C407.6273,244.0515 407.8693,243.5475 408.3453,242.8915 C406.7033,237.0675 405.0383,231.1395 403.3463,225.2185 C403.2023,224.7155 400.7313,218.8385 401.1633,223.0875 Z M349.1536,291.3567 C349.8616,292.0157 351.2706,292.8727 351.1506,293.2987 C350.7256,294.7987 349.7776,296.1517 348.4736,298.6017 C347.2866,296.5037 346.0836,295.2787 346.3406,294.6457 C346.8566,293.3777 348.1696,292.4347 349.1536,291.3567 Z M332.2371,292.9455 C333.0841,292.9875 333.8721,294.2125 335.1011,295.2765 C333.7541,296.2025 332.6831,297.3425 332.2761,297.1405 C331.2051,296.6095 330.4241,295.4955 329.5271,294.6135 C330.4331,294.0095 331.3631,292.9025 332.2371,292.9455 Z M306.2953,84.6175 C305.1403,87.1675 304.1793,89.2885 303.2103,91.4285 C303.6973,92.1475 304.2013,92.6985 304.4853,93.3455 C305.8513,96.4645 304.1443,99.4515 301.0813,98.5655 C297.9073,97.6465 296.0203,99.0535 293.7193,100.3625 C279.8913,108.2345 264.9933,103.9245 257.6873,94.4895 C255.9963,92.3055 254.0383,91.6775 251.5053,92.3225 C249.9273,92.7245 248.3583,93.1595 246.6583,93.6145 C246.3983,94.2865 246.1733,94.9575 245.8843,95.5995 C244.5033,98.6635 242.9633,99.4955 240.6123,97.4715 C238.0223,95.2415 236.1183,96.3415 234.4883,97.0545 C233.5223,99.4145 233.2913,101.9145 232.0013,102.7235 C229.4243,104.3385 229.0623,100.3895 226.6243,99.4095 C219.9943,103.1055 213.1703,106.8605 206.4093,110.7245 C205.1983,111.4165 203.6433,112.4085 203.3523,113.5445 C203.0903,114.5705 204.4533,115.9465 204.8793,117.2415 C205.1323,118.0125 205.2683,119.4575 204.9133,119.6645 C204.1263,120.1215 202.7453,120.4155 202.0583,120.0105 C200.5883,119.1445 199.4043,117.7915 198.0423,116.5845 C196.9083,117.5065 195.8893,118.2645 194.9513,119.1125 C193.6043,120.3315 192.4183,121.7505 190.9793,122.8405 C189.5363,123.9355 187.4313,126.1735 187.8043,127.0455 C188.1873,127.9385 189.3043,128.9695 189.6243,129.9715 C189.6313,129.9945 189.6363,130.0275 189.6403,130.0695 C189.7363,131.2085 188.5163,132.0165 187.4663,131.5655 C186.4753,131.1385 185.4283,130.6055 184.7823,130.6055 C184.3963,131.0475 184.2543,131.1715 184.1603,131.3235 C174.4333,147.1305 168.8273,164.5685 164.1013,182.3365 C163.7843,183.5275 164.3693,185.0965 164.8833,186.3475 C166.8493,191.1375 165.6273,194.4935 160.7683,196.8295 C160.4953,198.6675 160.2083,200.5975 159.9663,202.2275 C161.5933,204.2435 165.7453,203.2875 164.9063,206.7515 C164.1693,209.7965 160.9063,208.1655 158.3613,209.0415 C156.4743,219.8465 154.5733,230.9065 152.6033,241.9545 C151.2223,249.6975 150.6643,257.4695 151.8623,265.2715 C153.4023,275.2995 157.4623,283.9015 165.8783,289.9145 C169.3723,287.8525 173.4393,288.2845 176.1833,285.3625 C176.6733,284.8405 178.4673,285.5425 179.4913,285.6595 C181.4083,292.1635 179.3473,292.4015 173.0073,293.4795 C176.8653,296.4555 192.5693,297.8185 197.5773,295.8095 C196.4423,294.9385 195.0003,294.3125 194.4073,293.2245 C194.1423,292.7385 194.2073,292.0745 194.3333,291.3765 C194.4963,290.4755 195.3363,289.8475 196.2433,289.9775 C196.8123,290.0585 197.3713,290.1655 197.8913,290.3705 C198.7443,290.7065 199.5543,292.0845 200.1623,291.9555 C203.7463,291.1965 205.1163,293.1575 205.6163,296.3365 C214.0993,296.5925 224.5653,294.9925 232.5963,293.5535 C233.4833,293.3945 231.5833,290.0075 234.1153,288.4885 C236.8763,287.5485 235.6043,288.9585 239.1003,290.9365 C239.9373,291.4095 241.0743,291.7145 241.9343,291.5275 C246.8723,290.4505 252.9613,288.9315 258.1133,287.6655 C257.9503,284.3655 258.8933,281.5295 262.1293,281.3775 C264.0523,281.2875 266.0553,282.8975 268.0233,283.7435 C267.9683,284.0475 267.9133,284.3525 267.8593,284.6565 C269.6653,283.9865 271.4713,283.3175 273.2763,282.6475 C272.6243,279.2535 272.5253,276.4405 276.0793,275.0035 C276.5853,274.7985 277.0793,273.8805 277.0993,273.2765 C277.2003,270.1535 277.1463,267.0255 277.1463,263.8035 C274.9373,264.8655 273.2693,266.3525 271.8553,266.1415 C270.5913,265.9525 269.6073,263.8905 268.3603,262.4995 C260.7753,262.8585 252.9803,263.2505 245.1823,263.5835 C243.7693,263.6445 240.5493,263.2975 239.2213,263.5345 C237.8553,263.7795 238.6613,265.7885 237.4243,267.0425 C235.4183,269.0745 233.4893,267.4545 233.0923,262.9845 C232.7783,262.2145 231.9793,262.1935 231.3693,261.9085 C227.5083,260.1005 226.8003,256.5015 226.0153,252.9365 C225.0433,248.5195 224.1393,244.0875 223.1463,239.3755 C221.6753,239.0815 220.2813,238.5545 218.8973,238.5765 C215.4503,238.6315 212.0103,239.0215 208.5623,239.1105 C206.5203,239.1635 203.4733,239.9535 203.2733,237.0185 C203.0743,234.1075 206.1683,235.0485 207.9203,234.8785 C212.5573,234.4255 217.2183,234.2175 221.8613,233.9135 C221.4053,227.0305 221.3243,227.0075 215.0843,226.7495 C214.3643,226.7195 213.6553,226.4315 212.9523,226.1265 C212.2153,225.8065 211.7333,225.0815 211.7173,224.2785 C211.6823,222.4925 211.6113,220.9025 211.8053,219.3445 C211.9213,218.4155 212.6733,217.0135 213.3853,216.8395 C214.4263,216.5855 216.0063,216.8935 216.7823,217.5955 C217.8863,218.5945 218.6403,221.1085 219.4453,222.4385 C219.8843,222.2855 220.0983,222.6735 220.5363,222.5225 C219.4703,214.7645 217.9003,205.7445 216.8683,198.2435 C215.2073,196.4495 211.3713,198.0125 211.7193,194.8835 C211.9063,193.2035 214.0913,191.7445 215.6623,189.8365 C215.4053,187.5485 215.4873,186.3505 214.6183,181.8375 C213.3533,171.2725 213.5023,169.9875 212.5573,164.3455 C211.8953,157.9295 211.3573,157.5085 211.0663,152.9845 C210.8063,148.9525 209.4503,144.9515 209.8633,140.7875 C210.0053,139.3425 211.0083,138.1225 212.3883,137.6715 L215.8523,136.5375 C215.8803,131.0945 216.1343,129.4505 218.2003,129.3275 C219.4143,129.2555 220.4963,130.2525 220.4503,131.4675 C220.4413,131.7155 220.4543,131.9585 220.5063,132.1935 C220.8303,133.6565 221.0903,135.9085 222.0113,136.2885 C223.4683,136.8875 227.0903,136.2825 228.8303,136.0235 C229.2133,135.9655 227.9933,133.5165 228.4103,133.3955 C229.6423,133.0385 231.4163,133.7275 231.8863,134.2405 C234.0883,136.6485 236.7983,136.0315 239.4233,136.0385 C243.1183,136.0475 246.8193,135.9945 250.5023,135.6905 C257.0253,135.1515 258.7883,135.6665 258.0453,132.7765 C257.6373,131.1915 260.7613,130.6645 261.5323,132.2945 C262.9513,135.2915 265.2313,134.6115 267.4793,134.4485 C270.1953,134.2515 277.2013,133.4225 279.9143,133.3955 C283.6523,133.3585 281.9463,132.4875 284.2343,129.0945 C284.3083,128.9855 285.1423,128.8745 285.9523,128.7915 C286.7243,128.7135 287.4393,129.1345 287.8123,129.8145 C288.9593,131.8995 290.6003,132.5605 290.6003,132.5605 C293.4773,132.2045 298.7723,131.6525 301.2123,131.4005 C303.2033,129.0895 304.8113,126.9645 306.7243,125.1645 C307.2683,124.6525 308.9663,124.7095 309.6473,125.1925 C310.3063,125.6595 310.6633,127.0475 310.5603,127.9645 C310.4453,128.9895 309.6633,129.9405 309.0313,131.2055 C310.6833,131.1185 311.7853,131.1635 312.8503,130.9855 C316.6283,130.3555 320.6753,131.2965 323.9773,128.0295 C325.5083,126.5155 328.0533,127.3025 330.1013,128.5225 C331.3863,129.2885 332.9403,130.0815 334.3613,130.0605 C341.2623,129.9625 348.1643,129.6825 355.0523,129.2485 C356.4863,129.1585 357.8643,128.1525 359.2633,127.5555 C360.8703,126.8705 362.5043,125.5955 364.0623,125.6855 C365.0493,125.7425 365.9193,127.8235 366.7533,128.8855 L377.5383,128.8855 C377.7583,126.7995 378.1483,124.9025 378.1043,123.0155 C378.0553,120.8805 379.0803,119.8245 380.9663,119.9685 C382.9723,120.1225 383.4603,121.3975 383.0673,123.4765 C382.7353,125.2305 383.2063,127.1375 383.3313,129.1295 C388.6073,128.6915 393.3223,130.3005 397.8483,127.7715 C398.7743,127.2535 400.5463,128.0395 401.8473,128.4685 C402.9333,128.8275 403.8993,129.5505 404.9203,130.1095 C405.2493,129.7425 405.2083,129.7875 405.5373,129.4215 C403.8843,126.9365 402.2313,124.4525 400.8263,122.3405 C398.4013,122.0495 396.1173,122.4025 394.6583,121.4675 C391.8283,119.6545 395.4013,117.9265 395.5443,116.2695 C392.6923,112.9755 390.3853,109.4815 385.3903,110.2755 C384.4103,110.4315 383.2213,109.2695 381.8583,108.5775 C382.5153,107.0755 383.0493,105.8555 383.7893,104.1625 C378.6983,100.4995 373.6163,96.8425 367.4233,92.3875 C367.4233,95.3225 367.6133,96.8875 367.3603,98.3775 C367.1743,99.4755 366.6393,100.7935 365.8103,101.3925 C365.3573,101.7195 363.5343,101.0275 363.0983,100.3205 C362.2043,98.8735 361.4893,97.1365 361.3423,95.4625 C361.2123,93.9865 361.9563,92.4355 362.3503,90.7625 C360.9263,90.2495 359.7713,89.7315 358.5623,89.4225 C356.6383,88.9325 354.6783,88.5835 353.6123,88.3595 C350.8843,89.7785 348.9713,91.3995 346.8593,91.7245 C343.7693,92.1995 342.8483,89.4865 342.5753,86.9485 C330.2273,86.1555 318.3023,85.3895 306.2953,84.6175 Z M381.2991,288.695 C382.0831,288.762 382.7871,289.765 383.9741,290.694 C382.9221,291.829 382.2191,293.216 381.4021,293.288 C380.6111,293.357 379.1861,292.21 378.9551,291.351 C378.5321,289.775 379.6231,288.552 381.2991,288.695 Z M220.4517,283.4107 C221.7007,285.2407 222.9057,287.1017 224.4527,289.4347 C221.8827,292.4107 221.5147,292.4997 219.2177,290.6157 C216.2377,288.1717 214.9837,284.7067 216.3967,282.8207 C217.3627,281.5297 219.3507,281.7987 220.4517,283.4107 Z M300.5088,279.7712 C301.5698,280.1212 302.1848,280.1992 302.2018,280.3482 C302.5948,283.7132 306.9258,285.5342 305.8188,289.3972 C305.5658,290.2812 304.7528,291.2252 303.9418,291.6352 C303.5408,291.8382 302.2038,291.0632 301.9008,290.4352 C300.7398,288.0412 299.5808,285.5862 298.9518,283.0232 C298.7238,282.0932 299.9818,280.7972 300.5088,279.7712 Z M315.6289,280.1891 C316.7759,281.6821 317.9499,282.5461 317.8369,283.1821 C317.4209,285.5231 318.3869,286.8191 320.1879,288.0751 C320.7669,288.4781 321.1009,290.2411 320.7129,290.7611 C320.2619,291.3661 318.7959,291.6651 317.9459,291.4391 C315.1439,290.6921 312.5409,287.0971 313.0559,284.4841 C313.3169,283.1561 314.4969,282.0091 315.6289,280.1891 Z M328.7197,282.8547 C329.6047,284.5627 330.4957,285.6567 330.6477,286.8457 C330.7227,287.4277 329.5037,288.6347 328.7317,288.7707 C327.1377,289.0507 325.5947,287.1417 326.1097,285.5517 C326.3727,284.7357 327.4007,284.1677 328.7197,282.8547 Z M206.448,285.0049 C206.296,285.5599 205.842,286.0329 205.231,286.6779 C204.679,287.2609 203.737,287.2179 203.239,286.5869 C202.576,285.7469 202.027,285.0509 201.809,284.2619 C201.663,283.7369 202.766,282.4049 203.517,282.1899 C205.023,281.7609 206.846,283.5529 206.448,285.0049 Z M385.0587,279.5214 C385.5347,280.2534 385.7207,281.5164 385.4207,282.3334 C384.9357,283.6524 383.9577,284.7894 383.0987,286.1444 C380.6687,286.1444 378.1817,286.2704 375.7147,286.1054 C373.6967,285.9704 372.4727,283.7474 373.1257,281.6034 C373.7947,279.4094 375.4417,279.6264 377.0867,280.2654 C377.8877,280.5774 378.5957,281.1294 379.3867,281.5954 C380.5997,280.7434 381.5567,279.8494 382.6887,279.3624 C383.3717,279.0674 384.7867,279.1034 385.0587,279.5214 Z M242.952,279.4977 C244.585,280.3347 245.055,281.5597 244.291,283.9137 C243.939,284.9957 242.719,285.5307 241.7,285.0257 C240.022,284.1947 238.653,283.3687 239.458,280.8837 C239.969,279.3097 241.299,278.6517 242.952,279.4977 Z M344.8028,276.4215 C346.9788,276.7645 349.1608,277.3485 351.1868,278.2005 C351.9248,278.5115 352.6738,279.8925 352.6058,280.7175 C352.5388,281.5205 351.5588,282.4535 350.7448,282.9265 C350.0388,283.3395 349.0048,283.1885 346.8628,283.4255 C345.8458,282.7745 343.8688,281.7445 342.2278,280.3255 C341.6758,279.8475 341.5618,278.1015 342.0048,277.4445 C342.4678,276.7575 343.9048,276.2795 344.8028,276.4215 Z M226.6387,275.5337 C227.1527,275.5777 227.6447,275.8837 228.2447,276.3527 C229.4497,277.2927 229.3077,279.1587 227.9627,279.8837 C226.9837,280.4127 226.1897,280.8007 225.3507,281.0187 C224.8747,281.1417 223.4097,279.7477 223.4427,279.1017 C223.5367,277.2377 224.3977,275.3417 226.6387,275.5337 Z M359.6327,275.5703 C360.6027,275.6413 361.5037,276.6473 363.3267,277.8273 C361.3787,278.7913 360.2477,279.8323 359.4287,279.6283 C358.5267,279.4033 357.9097,278.0333 357.1687,277.1613 C357.9937,276.5883 358.8547,275.5123 359.6327,275.5703 Z M256.0346,268.2 C257.1596,268.486 258.6456,268.939 259.1006,269.794 C259.4966,270.538 258.9776,272.162 258.3346,272.983 C257.1306,274.521 255.5446,275.759 253.4546,277.755 C252.5986,277.654 250.8886,277.452 248.9506,277.224 C249.0326,275.963 248.7656,274.852 249.2026,274.305 C250.7016,272.429 252.4066,270.709 254.1256,269.024 C254.6026,268.556 255.4916,268.062 256.0346,268.2 Z M404.8101,269.1328 C405.9791,269.6868 406.6471,271.2978 407.9981,273.0358 C406.4591,274.3278 405.3841,275.2298 404.3091,276.1318 C403.5151,275.0598 402.2621,274.0788 402.0281,272.8958 C401.6221,270.8428 403.4911,268.5068 404.8101,269.1328 Z M390.2754,269.9723 C391.6584,271.3313 392.8324,272.1183 393.3564,273.2133 C393.5244,273.5633 392.0694,275.2503 391.1824,275.4233 C389.4994,275.7513 387.7024,275.0603 387.7344,272.9973 C387.7484,272.1543 389.0784,271.3333 390.2754,269.9723 Z M237.1191,269.9211 C237.5081,269.9631 237.8781,270.1761 238.3311,270.5011 C239.3311,271.2201 239.3611,272.6941 238.3891,273.4501 C237.6001,274.0641 236.9261,274.5371 236.1821,274.7161 C235.4451,274.8931 233.8391,273.8421 233.5621,273.0261 C233.0641,271.5591 235.1981,269.7121 237.1191,269.9211 Z M183.6141,267.4604 C184.1761,268.8884 184.6141,270.3654 185.1201,271.9904 C185.3901,272.8544 185.0241,273.8124 184.2191,274.2254 C182.6581,275.0274 181.4961,274.0394 180.5001,272.6514 C179.1061,270.7084 179.1591,267.8524 180.5901,266.7514 C181.7581,265.8534 183.0091,265.9224 183.6141,267.4604 Z M160.2593,259.2766 C160.9203,259.4786 161.6893,260.4406 161.7913,261.1576 C162.0843,263.2246 162.0653,265.3356 162.1693,267.4286 C162.4633,267.5926 162.7573,267.7556 163.0513,267.9196 C162.0553,268.9526 161.1073,270.7496 160.0503,270.8156 C158.8463,270.8906 156.4673,269.4056 156.479255,268.6276 C156.5243,265.7176 157.2483,262.7966 157.9613,259.9416 C158.0673,259.5196 159.5873,259.0736 160.2593,259.2766 Z M355.6813,256.8645 C347.7403,257.4565 340.7253,257.9795 333.5173,258.5165 C332.8553,261.4285 331.4883,263.9625 328.4763,264.3215 C323.2913,264.9405 318.0553,265.2455 312.8333,265.3845 C311.5843,265.4185 310.5313,264.9895 310.1923,263.9325 C309.7733,262.6245 310.8923,261.3145 312.2663,261.3225 C314.0623,261.3345 315.9213,261.3495 317.7783,261.3015 C320.2313,261.2375 328.6013,262.3985 329.1353,258.9225 L325.1443,259.2615 C310.9783,260.2525 296.8123,261.2435 282.4853,262.2455 L282.4853,267.3695 C291.1773,267.9905 299.4823,268.5895 307.7873,269.1765 C313.0273,269.5465 318.2633,270.0725 323.5093,270.2205 C334.3023,270.5265 343.7343,266.6825 352.2083,260.2375 C353.2683,259.4305 354.1403,258.3755 355.6813,256.8645 Z M371.0217,259.2914 C373.7447,259.7244 373.7867,262.1604 374.4307,264.4074 C372.0797,266.3404 368.7057,265.1294 367.6867,268.2884 C367.5727,268.6444 365.8157,268.9404 365.2797,268.5804 C364.5057,268.0594 363.7667,266.9484 363.6877,266.0304 C363.4377,263.1634 368.1257,258.8304 371.0217,259.2914 Z M403.4161,258.9542 C404.3741,260.7432 404.6221,263.0082 404.7491,265.0922 C404.7891,265.7412 403.4341,266.4762 402.7181,267.1722 C402.0441,266.4772 401.0781,265.8952 400.7571,265.0642 C400.0031,263.1102 399.5571,261.0372 398.8711,258.6042 C400.6521,256.6002 402.5421,257.3222 403.4161,258.9542 Z M389.6159,260.2176 C390.1509,261.1816 391.3169,261.7936 392.1919,262.5706 C392.8259,263.1346 393.4509,263.7086 394.4419,264.6056 C393.4419,265.4376 392.5309,266.6896 392.0079,266.5446 C389.6469,265.8896 387.1709,265.1726 385.1709,263.8306 C383.3689,262.6206 383.6529,259.8156 385.3369,258.6976 C387.3329,257.3736 388.5569,258.3116 389.6159,260.2176 Z M208.9547,258.1692 C209.9927,260.4232 209.0707,262.3892 207.5637,264.0202 C206.3537,265.3312 204.8757,265.7922 203.2647,263.7902 C204.0557,261.4332 204.7707,259.3002 205.5027,257.1162 C207.0097,256.2062 208.2377,256.6122 208.9547,258.1692 Z M407.3153,132.9505 C406.8143,141.2815 406.3603,148.8345 405.8863,156.7325 C410.9943,158.6245 411.5213,160.3695 407.7503,163.3125 C405.9043,164.7535 405.3033,166.2075 405.2423,168.2795 C405.1783,170.4585 404.9513,172.6325 404.9153,174.8115 C404.8803,176.9065 404.5233,178.8155 406.9873,180.4415 C409.1543,181.8705 409.0023,185.9695 406.9393,187.7285 C401.6423,192.2445 403.2923,198.3685 404.0543,203.4405 C404.9393,209.3255 408.1973,214.8585 410.4493,220.5335 C413.9323,229.3045 417.4753,238.0525 420.9143,246.8405 C422.6833,251.3605 424.2813,255.9465 425.9883,260.5905 C430.7713,257.4555 430.7713,257.4555 434.7583,259.7735 C434.9563,256.8265 435.0713,254.1815 435.3473,251.5535 C435.4333,250.7415 435.8203,249.4315 436.3103,249.3085 C437.1923,249.0865 438.4573,249.3115 439.1983,249.8505 C440.4353,250.7525 441.3863,252.0475 442.6913,253.4225 C450.1793,247.8485 457.2683,242.5725 463.6303,237.8375 C463.6303,235.3115 462.9563,233.0765 463.7623,232.1985 C465.7653,230.0135 465.5493,225.6025 469.7293,225.4955 C472.2833,228.5085 468.6123,230.8225 468.9803,234.0875 C472.7733,231.2495 476.1653,228.8325 479.3943,226.2145 C480.2583,225.5135 480.8993,224.2665 481.1713,223.1545 C482.1363,219.2205 484.3053,217.2555 488.1533,217.1705 C489.1863,217.1475 490.5103,217.5485 491.2053,217.0555 C495.2923,214.1605 499.2323,211.0575 503.4073,207.8835 C494.1643,191.2705 485.2753,175.2945 476.1963,158.9765 C470.6563,161.0995 465.8013,163.0485 460.8803,164.8115 C458.1163,165.8005 455.5113,166.8135 454.9053,169.9185 C452.8503,169.7465 450.9413,169.0295 449.4923,169.5625 C443.5753,171.7415 437.7983,174.3015 431.6083,176.8715 C432.8793,182.2055 434.0943,187.1135 435.1973,192.0475 C435.5423,193.5925 436.1753,195.6785 434.0873,196.2665 C432.0733,196.8335 431.4353,194.9795 431.0463,193.3145 C430.7153,191.9005 430.3703,190.4885 430.0023,189.0835 C427.7973,180.6545 425.6373,172.2125 423.3373,163.8095 C422.7293,161.5895 421.6823,159.4895 420.7273,157.0535 C416.8463,158.3305 414.0443,156.6975 411.5083,154.5605 C409.7393,153.0695 409.5613,150.1785 411.0373,148.7015 C412.6983,147.0395 414.2583,147.5475 415.6983,149.1545 C415.8973,149.3765 416.4263,149.3025 417.1843,149.4295 C414.7193,143.3735 412.2903,137.8595 407.3153,132.9505 Z M295.8463,136.3385 C271.2083,138.0865 246.6173,140.4715 221.9063,141.0505 C219.4103,141.1095 216.9183,141.3075 214.2113,141.4525 C214.3323,143.2845 214.3423,144.5395 214.5083,145.7735 C215.3803,152.2485 216.3223,158.7135 217.1853,165.1895 C219.7793,184.6295 222.1873,204.0965 224.9953,223.5055 C226.3723,233.0225 228.3783,242.4535 230.2823,251.8865 C231.4673,257.7575 231.6073,257.9155 237.7743,258.3395 C243.7403,258.7485 249.7603,259.1235 255.7173,258.8005 C277.8343,257.6025 299.9423,256.2065 322.0403,254.6945 C335.8003,253.7535 349.5723,252.7925 363.2713,251.2375 C373.7083,250.0525 384.0363,247.9215 394.1553,246.2535 C397.0463,238.2435 403.6573,141.5265 401.9103,134.0945 C401.2853,133.9935 400.5903,133.8005 399.8903,133.7795 C365.1633,132.7405 330.4703,133.8805 295.8463,136.3385 Z M429.9381,247.1386 C430.7201,247.9206 432.1801,248.7526 432.1281,249.4746 C432.0451,250.6156 430.9491,251.6836 429.8941,253.4216 C428.7941,251.8566 427.6631,250.9136 427.8271,250.3406 C428.1631,249.1686 429.1931,248.1936 429.9381,247.1386 Z M215.8279,244.4476 C216.4869,246.4136 216.8329,248.4836 217.3379,250.6076 C215.2549,252.2286 213.5829,251.6606 212.3329,249.7266 C211.2209,248.0066 210.6169,246.0906 211.9599,244.1586 C213.0439,242.5986 215.2459,242.7116 215.8279,244.4476 Z M177.6434,243.9586 C177.1294,245.9906 176.4964,248.0286 175.5934,249.9096 C175.2124,250.7026 174.0034,251.5576 173.1804,251.547687 C172.3664,251.5376 170.8094,250.3546 170.8814,249.8896 C171.3384,246.9786 172.0924,244.1046 172.9224,241.2686 C173.0694,240.7656 174.0304,240.5016 174.3194,240.3166 C176.3274,240.1476 178.0894,242.2006 177.6434,243.9586 Z M190.4369,241.6484 C191.6279,241.6604 193.2909,242.5794 193.8779,243.6014 C194.7289,245.0804 194.7989,247.0094 195.3159,249.2394 C195.0819,249.5934 194.7489,250.6934 194.1039,250.9254 C193.2249,251.2414 191.8749,251.2454 191.1439,250.7584 C189.8399,249.8884 188.6089,248.6964 187.8019,247.3634 C187.1409,246.2724 186.5539,244.5044 187.0079,243.5444 C187.4809,242.5464 189.2459,241.6374 190.4369,241.6484 Z M431.1389,237.3525 C431.0249,238.2765 429.9489,239.6095 429.0849,239.8115 C426.7679,240.3545 423.8789,238.2285 424.0619,236.1895 C424.1689,235.0015 425.1399,233.8905 425.5249,233.1335 C427.8909,232.9075 431.3379,235.7195 431.1389,237.3525 Z M161.0583,236.5072 C160.4703,237.4472 159.7123,238.2812 158.7363,239.3332 C158.0503,240.0712 156.8503,239.9732 156.2923,239.1352 C155.6783,238.2132 155.2293,237.5402 155.4053,237.2542 C156.1503,236.0512 157.4063,234.9562 158.7083,234.4232 C159.1633,234.2362 161.1673,236.3332 161.0583,236.5072 Z M442.6464,229.0171 C444.6084,230.3071 446.1404,232.2511 448.1104,234.1701 C446.9074,235.2491 446.2434,236.3261 445.4054,236.4831 C444.1344,236.7231 442.5944,236.6461 441.4404,236.1131 C440.0714,235.4821 438.9854,234.2331 437.7874,233.2391 C436.0754,231.8181 436.1524,229.2231 438.2054,228.5271 C439.5144,228.0831 441.5114,228.2711 442.6464,229.0171 Z M193.4991,229.3919 C195.4381,229.6179 196.3611,230.7969 195.8521,232.8109 C195.7271,233.3049 195.5961,233.7969 195.4561,234.3039 C195.0091,235.9279 193.1431,236.7339 191.6861,235.8899 C189.9081,234.8619 189.4651,233.6589 189.9101,231.9499 C190.3881,230.1159 191.6541,229.1769 193.4991,229.3919 Z M163.555,225.7935 C164.716,226.4255 165.834,227.1375 167.085,227.9635 C168.448,228.8625 168.424,230.9665 166.956,231.6825 C166.788,231.7645 166.623,231.8185 166.454,231.8405 C164.578,232.0765 161.815,229.7445 161.936,228.0055 C161.991,227.1965 163.424,225.7215 163.555,225.7935 Z M459.2754,223.1955 C458.3424,226.2535 457.8664,228.0985 457.1914,229.8675 C456.9704,230.4445 456.1964,231.2395 455.7394,231.1995 C454.9794,231.1345 454.0484,230.6375 453.5984,230.0235 C453.1054,229.3515 453.0314,228.3475 452.8524,227.4735 C452.4804,225.6595 452.1774,223.5295 454.2214,222.7935 C455.5664,222.3085 457.3334,222.9955 459.2754,223.1955 Z M426.9258,223.3874 C428.1598,224.9794 429.1548,226.2634 430.1498,227.5484 C429.3578,228.0854 428.5608,229.0804 427.7758,229.0714 C425.8478,229.0504 424.1398,226.9774 424.6738,225.4994 C424.9128,224.8344 425.8008,224.4044 426.9258,223.3874 Z M178.5711,222.1422 C178.9991,222.9012 179.4271,223.6722 179.7701,224.4782 C180.3701,225.8852 180.5771,227.6632 178.7271,227.9182 C177.8281,228.0422 176.3241,226.6672 175.7471,225.6122 C174.9271,224.1142 174.7251,222.5562 176.3501,221.5592 C177.1181,221.0882 178.1291,221.3572 178.5711,222.1422 Z M321.4516,173.224391 C327.9436,173.1856 332.4346,178.5976 330.0006,184.5506 C327.0106,191.8586 327.0386,197.9396 331.2386,204.9386 C334.8786,211.0056 332.8406,218.3226 328.3506,222.4956 C322.9056,227.5576 314.4096,228.8956 308.0506,225.6936 C300.2646,221.7726 297.5626,212.9116 302.0536,205.4486 C302.6826,204.4036 304.1916,203.7466 305.4296,203.2466 C306.7086,202.7306 308.1536,202.6246 310.4486,202.1476 C309.1746,200.2606 308.7036,198.9236 307.7596,198.2836 C304.8036,196.2806 304.6416,193.5746 305.4346,190.5816 C306.2686,187.4346 306.9096,184.1696 308.2496,181.2366 C310.7706,175.7206 315.5776,173.2606 321.4516,173.224391 Z M198.7637,218.4567 C199.5977,218.7847 199.9657,220.2947 200.6197,221.3947 C199.7317,223.0617 199.0837,224.4657 198.2187,225.7207 C198.0717,225.9347 196.4817,225.6117 196.4307,225.3587 C196.1277,223.8717 195.8477,222.3037 196.0197,220.8167 C196.1827,219.4127 196.9267,217.7357 198.7637,218.4567 Z M318.5206,177.9326 C314.1196,179.1516 312.1896,182.3666 310.8626,186.3606 C309.6206,190.0976 308.9436,193.2446 312.1726,196.7796 C316.1546,201.1386 314.5266,205.3766 308.9856,207.0866 C308.6406,207.1926 308.2796,207.2886 307.9206,207.3096 C305.9126,207.4276 305.1756,208.7756 304.7736,210.4866 C302.7736,219.0126 308.8866,222.7686 315.6206,223.0876 C325.8266,222.9766 331.1186,214.7426 326.9566,205.4386 C326.6616,204.7766 326.3686,204.0886 325.9376,203.5166 C322.0326,198.3406 321.5566,192.9376 324.7316,187.2366 C325.0796,186.6126 325.2376,185.8816 325.4786,185.1976 C326.2156,183.1066 327.0006,180.9186 325.1176,179.0876 C323.2526,177.2776 320.9966,177.2466 318.5206,177.9326 Z M444.1851,217.5177 C443.7411,218.8287 442.6911,219.9357 441.3701,221.8327 C440.1901,220.1827 438.8511,219.0477 439.0581,218.4397 C439.4461,217.3007 440.5861,216.1047 441.7031,215.6617 C442.2431,215.4467 444.3011,217.1737 444.1851,217.5177 Z M422.4495,213.7625 C424.0545,213.8425 425.6995,214.1765 425.9165,216.2975 C426.0525,218.1665 424.5595,219.8825 422.5785,219.4835 C421.2735,219.2205 419.6845,218.1395 419.1225,216.9855 C418.4305,215.5655 420.4875,213.6645 422.4495,213.7625 Z M466.804,215.6107 C467.588,215.5577 468.443,216.5347 469.751,217.3757 C468.584,218.3207 467.804,219.4367 467.113,219.3847 C466.329,219.3247 465.625,218.2197 464.886,217.5687 C465.522,216.8717 466.123,215.6567 466.804,215.6107 Z M477.7017,210.8034 C478.9207,212.4454 480.1277,213.3644 480.0687,214.1914 C480.0107,214.9984 478.7597,216.0314 477.8287,216.3284 C477.3857,216.4704 475.9287,215.1564 475.9027,214.4654 C475.8667,213.5354 476.7707,212.5704 477.7017,210.8034 Z M173.5186,210.6148 C173.6936,210.6598 173.7226,211.2598 173.9536,212.0768 C173.3446,212.5288 172.6516,213.1838 171.8376,213.6098 C170.6756,214.2188 169.4456,214.7158 168.2056,215.1518 C167.4406,215.4208 166.2756,215.8898 165.8716,215.5578 C165.1536,214.9698 164.2546,213.4468 164.5306,213.0128 C165.4196,211.6148 166.6526,209.8188 168.0456,209.5148 C169.7166,209.1498 171.6946,210.1358 173.5186,210.6148 Z M410.6963,210.1466 C411.5113,211.1836 412.6013,212.1236 413.0153,213.3006 C413.0633,213.4346 413.0263,213.5966 412.9263,213.7926 C412.1733,215.2686 410.0193,215.1426 409.2663,213.6666 C409.0293,213.2026 408.8663,212.7726 408.8163,212.3306 C408.7423,211.6826 410.0253,210.8796 410.6963,210.1466 Z M470.2334,205.5978 C471.2514,206.6358 472.1604,208.2758 472.1834,209.6628 C472.2094,211.2238 470.5094,211.5578 469.3474,210.6988 C468.1004,209.7778 467.1764,208.4208 466.0274,207.1618 C467.3074,204.6868 468.8074,204.1428 470.2334,205.5978 Z M206.3037,205.0602 C203.1337,213.0412 197.3997,210.7062 191.9627,209.7572 C191.5957,209.6932 191.2667,209.4812 191.0737,209.1642 C190.2237,207.7712 190.7967,206.3122 192.3377,205.9162 C196.4137,204.8692 200.6267,204.3342 204.8047,203.7362 C205.2317,203.6752 205.7987,204.5942 206.3037,205.0602 Z M488.6597,200.9608 C491.2727,200.9958 493.6827,203.2868 493.5467,205.6068 C493.4127,207.8728 491.5057,209.6688 489.3477,209.5588 C486.2877,209.4028 483.6617,207.2208 483.7127,204.8768 C483.7597,202.7588 486.0737,200.9278 488.6597,200.9608 Z M445.9642,201.4765 C447.5962,204.2075 449.4102,205.9125 452.8762,204.6095 C453.1922,204.4895 454.1032,205.9525 454.7382,206.6805 C453.8902,207.3445 453.0422,208.0095 452.1932,208.6745 L451.7412,207.6545 C450.5822,207.7865 449.4262,207.9665 448.2622,208.0425 C445.5382,208.2205 442.7612,206.2295 442.3412,203.6135 C442.2222,202.8775 442.6222,201.5495 443.1352,201.3355 C443.9572,200.9925 445.6752,200.9935 445.9642,201.4765 Z M435.405,204.447 C434.671,205.742 433.552,206.819 432.168,208.443 C431.254,206.976 430.131,205.707 430.342,205.42 C431.206,204.247 432.433,203.305 433.668,202.496 C433.791,202.415 435.553,204.187 435.405,204.447 Z M415.1345,194.8524 C417.4925,195.5164 419.3355,197.1694 419.5715,199.8074 L419.601851,200.133138 C419.789713,202.102586 420.027553,204.305716 417.4185,204.7614 C414.7845,201.8654 412.7155,199.5904 410.5195,197.1744 C411.2685,195.0614 413.0775,194.2734 415.1345,194.8524 Z M179.0326,198.3768 C178.8736,200.5958 176.3906,203.2368 174.5416,202.8188 C173.7636,202.6428 172.9026,201.5678 172.6506,200.7288 C172.4476,200.0578 173.1076,199.1258 173.3926,198.2878 C172.3146,196.0718 172.7596,194.3788 175.3666,193.9888 C177.3116,193.6968 179.1926,196.1328 179.0326,198.3768 Z M198.4563,194.9636 C198.9943,195.6166 199.3873,196.1626 199.5353,196.7686 C199.9123,198.3016 197.4843,200.4436 196.0803,199.7726 C195.1383,199.3216 194.2373,197.7076 194.2583,196.6326 C194.2683,196.1106 194.6023,195.5956 195.0923,194.9816 C195.9463,193.9106 197.5843,193.9076 198.4563,194.9636 Z M473.0986,192.2672 C474.5936,192.3642 476.1246,192.4582 477.5366,192.8932 C477.8466,192.9882 478.1036,194.9612 477.7266,195.2742 C476.4406,196.3392 474.8636,197.0562 473.3866,197.8852 C473.2496,197.9622 473.0316,197.8952 472.4556,197.8952 C471.8076,197.6112 470.6846,197.3662 469.8906,196.7182 C468.3506,195.4612 468.9666,193.2252 470.9666,192.5642 C471.6406,192.3422 472.3946,192.2212 473.0986,192.2672 Z M448.0175,187.3918 C450.6735,188.3108 450.9665,190.5508 450.8365,193.5568 C447.0395,192.7938 444.8765,190.7608 445.6315,188.9428 C445.9475,188.1848 447.4385,187.1918 448.0175,187.3918 Z M521.8333,140.7565 C509.2073,149.6045 499.9243,161.5355 487.2673,169.7005 C491.7813,177.7355 496.0063,185.2555 500.0713,192.4885 C512.1583,187.0555 523.6713,181.7055 535.3323,176.6995 C543.1683,173.3365 551.2103,170.4525 559.1663,167.3715 C561.3283,166.5345 563.2663,165.5285 564.1283,163.1255 C564.4943,162.1035 563.5293,161.0935 562.4753,161.3545 C560.6513,161.8065 559.0123,162.2005 557.4123,162.7155 C552.2273,164.3815 547.0863,166.1825 541.9083,167.8715 C541.3263,168.0625 540.7343,168.2795 540.1313,168.4195 C537.9293,168.9315 536.7523,165.9395 538.7033,164.7975 C539.5703,164.2905 540.4243,163.8375 541.3243,163.5105 C546.7813,161.5265 552.2733,159.6015 557.8513,158.0025 C560.4853,157.2475 561.8313,156.0685 561.6393,153.6195 C561.5823,152.8965 561.0763,152.2645 560.3893,152.0335 C557.8873,151.1925 555.4303,152.0285 553.0233,152.7425 C548.3243,154.1355 543.7033,155.7985 538.9733,157.0685 C537.8543,157.3685 535.6353,156.9195 535.3093,156.1935 C534.3933,154.1495 536.2783,153.5195 537.8733,153.0095 C540.3393,152.2215 542.7993,151.4155 545.2473,150.5725 C546.9543,149.9855 548.6823,149.4645 550.4093,148.9385 C552.0213,148.4475 553.1673,147.7365 553.3013,146.0395 C553.3753,145.1005 552.5183,144.3545 551.5913,144.5215 C550.2903,144.7555 549.0403,144.9615 547.9093,145.4445 C537.2553,149.9975 526.6613,154.6915 516.0083,159.2455 L515.9783,159.2585 C514.2293,159.9935 512.3843,158.3845 512.8983,156.5585 C512.9793,156.2685 513.0943,156.0015 513.2613,155.7715 C515.3863,152.8355 517.9213,150.1995 520.1263,147.3175 C521.3653,145.6975 522.7893,143.9705 521.8333,140.7565 Z M488.4257,185.7147 C489.4037,185.9707 489.9287,187.9587 491.0367,189.7897 C489.8197,190.8267 488.9237,192.2157 488.0677,192.1917 C486.1487,192.1367 485.6497,190.4297 485.6787,188.7047 C485.7087,186.8857 486.5587,185.2277 488.4257,185.7147 Z M425.1289,185.9061 C425.8879,186.6971 427.2209,187.4701 427.2449,188.2821 C427.2689,189.0931 425.9829,189.9431 424.8999,191.2101 C423.9669,189.9161 422.8449,188.9821 423.0109,188.4561 C423.3189,187.4801 424.3809,186.7431 425.1289,185.9061 Z M208.7292,184.3303 C209.3042,184.8873 209.8102,185.8463 209.7952,186.6243 C209.7432,189.3453 206.7632,191.1823 203.1162,190.7843 C202.6412,187.6543 205.4192,186.2773 206.8092,184.2063 C207.0042,183.9163 208.3582,183.9723 208.7292,184.3303 Z M454.1485,174.4787 C455.2855,175.8457 456.4535,176.6527 456.7235,177.6917 C457.4535,180.5067 458.0165,183.2867 460.4155,185.3057 C460.7745,185.6077 460.8195,186.9517 460.4925,187.2527 C459.9255,187.7757 458.6195,188.3347 458.2115,188.0457 C456.6335,186.9277 454.8145,185.7247 453.9755,184.0947 C452.9375,182.0787 452.6245,179.6267 452.3475,177.3217 C452.2605,176.6017 453.3075,175.7447 454.1485,174.4787 Z M444.1148,184.7365 C442.2358,184.7365 440.5378,184.9095 438.9148,184.6375 C438.3848,184.5495 437.8108,183.3365 437.7068,182.5765 C437.6368,182.0615 438.2188,181.1995 438.7408,180.9085 C440.6848,179.8275 443.0068,181.3005 444.1148,184.7365 Z M171.9944,175.9493 C172.4874,175.9283 173.2714,176.9963 173.5034,177.7113 C174.0274,179.3273 174.2914,181.0273 174.7134,182.9333 C172.4644,184.4513 170.6574,184.0873 169.8424,182.2403 C169.1894,180.7613 169.2484,178.8383 169.4694,177.1763 C169.5434,176.6273 171.0944,175.9873 171.9944,175.9493 Z M472.9492,175.9963 C476.2072,176.0073 476.9722,177.2263 476.971201,179.1203 C476.9702,181.0323 476.1152,182.2303 474.0902,182.238331 C471.9422,182.2473 469.1082,180.2823 469.7262,179.1183 C470.5192,177.6233 472.2542,176.6283 472.9492,175.9963 Z M187.014,174.8852 C187.86,176.9072 187.535,178.7832 185.756,180.1482 C184.564,181.0642 182.948,180.1552 182.766,178.4212 C182.604,176.8782 182.732,175.3042 182.732,173.8102 C184.799,172.2062 186.153,172.8282 187.014,174.8852 Z M196.3122,171.271998 C198.6682,171.27 199.2312,172.907 199.3282,175.528 C198.3592,176.718 197.6072,178.487 196.3662,178.954 C194.7902,179.547 193.2012,177.198 193.2212,174.879 C193.2382,172.786 194.2052,171.275 196.3122,171.271998 Z M466.9585,173.0939 C465.4595,174.4489 464.5155,175.6639 463.2745,176.2229 C462.8565,176.4119 461.6875,174.9389 460.8625,174.2249 C461.8905,173.1939 462.8125,171.9939 464.0155,171.2409 C464.3485,171.0319 465.5145,172.1529 466.9585,173.0939 Z M415.9434,168.5309 C417.2894,170.3069 418.5894,171.3129 418.8564,172.5429 C419.2564,174.3929 417.3324,176.0339 415.4804,175.6819 C413.5964,175.3239 411.8094,174.3109 412.3954,172.1419 C412.7124,170.9689 414.2944,170.1379 415.9434,168.5309 Z M340.5965,156.0698 C340.7505,163.1098 333.7485,170.8878 326.5085,171.7188 C324.2245,171.9808 322.1795,170.1718 322.6435,167.7658 C323.0395,165.7108 323.7525,163.3308 325.1595,161.9368 C328.4445,158.6808 332.0425,155.6518 335.8745,153.0648 C338.7635,151.1158 340.5185,152.4588 340.5965,156.0698 Z M173.8063,162.6946 C174.7393,162.9796 175.5413,163.6966 176.6233,164.6166 C177.3113,165.2016 177.3183,166.2666 176.6343,166.8576 L176.6003,166.8866 C175.4323,167.8966 173.6503,167.7516 172.6973,166.5426 C172.2533,165.9796 171.8453,165.3986 171.5213,164.7736 C171.3813,164.5046 173.2683,162.5296 173.8063,162.6946 Z M335.5425,158.4538 C331.8765,160.6608 329.5095,162.4918 327.7675,166.3898 C331.9145,164.9398 334.2265,163.0518 335.5425,158.4538 Z M188.2241,156.4385 C188.6451,156.5545 189.0141,156.8615 189.4341,157.2785 C190.2661,158.1055 190.2561,159.4595 189.4161,160.2775 C188.7221,160.9535 188.0791,161.5445 187.3651,162.0325 C187.1921,162.1515 185.5831,160.9485 185.4651,160.2235 C185.1201,158.0905 186.7061,156.0215 188.2241,156.4385 Z M203.4956,152.403 C204.2596,153.203 204.7906,153.8 204.7796,154.387 C204.7576,155.4 203.5086,156.899 202.4726,157.261 C200.8466,157.828 199.6706,156.475 199.7746,154.891 C199.8176,154.236 200.1396,153.6 200.6026,152.776 C201.1996,151.714 202.6536,151.522 203.4956,152.403 Z M182.5085,147.205075 C184.2935,147.1991 185.4915,148.2741 185.6205,150.2041 C185.7645,152.3481 183.5725,155.4301 182.1815,154.7481 C181.0065,154.1721 180.4805,152.2741 179.6675,150.9611 C179.9075,148.6881 180.3755,147.2121 182.5085,147.205075 Z M189.9533,141.3938 C191.6443,141.7258 192.3043,142.9308 191.4263,145.7028 C191.6833,146.1478 192.5243,147.1728 192.8703,148.3448 C193.1223,149.1978 192.9793,150.4098 192.5093,151.1378 C192.2653,151.5168 190.8113,151.4648 190.1163,151.1448 C187.3393,149.8668 185.6913,146.5308 186.4333,143.9858 C186.9413,142.2448 188.0013,141.0098 189.9533,141.3938 Z M208.0137,129.5788 C208.4507,134.7618 207.2977,137.1618 204.6407,137.0228 C202.6687,136.9198 200.6187,134.4788 200.8327,132.4888 C201.1037,129.9748 203.2997,129.0278 208.0137,129.5788 Z M239.569627,122.7067 C239.5406,123.8387 239.3286,125.0427 238.8476,126.0627 C238.5036,126.7927 237.6276,127.2717 236.9896,127.8627 C236.4916,127.8467 235.9946,127.8297 235.4966,127.8127 C235.3176,126.5817 234.7076,125.1907 235.0856,124.1647 C235.4436,123.1927 236.7646,122.4557 237.8176,121.9237 C238.2036,121.7297 239.5766,122.4357 239.569627,122.7067 Z M264.8335,124.076 C265.4595,124.122 266.0195,125.054 266.9185,125.884 C265.8985,126.657 265.2515,127.147 264.6045,127.638 C264.0265,126.87 263.4495,126.103 262.8725,125.335 C263.5285,124.879 264.2135,124.03 264.8335,124.076 Z M275.4532,120.807 C275.9142,120.846 276.3432,121.254 276.8332,121.805 C277.6412,122.714 277.6442,124.09 276.8472,125.008 L276.8172,125.043 C275.8712,126.132 274.1372,126.112 273.2802,124.955 C273.0442,124.636 272.8662,124.306 272.7942,123.954 C272.4412,122.218 273.4962,120.641 275.4532,120.807 Z M338.8061,118.9435 C340.0751,120.9265 338.9291,122.4925 337.2981,123.4505 C336.0011,124.2135 334.3891,124.4405 332.9161,124.9055 C332.8731,124.7655 332.8311,124.6265 332.7881,124.4865 C332.0731,124.4865 331.3241,124.6245 330.6471,124.4605 C328.6571,123.9785 328.0741,122.1735 329.5751,120.8915 C330.9301,119.7345 332.4581,118.7255 334.0411,117.9035 C335.8061,116.9875 337.6431,117.1265 338.8061,118.9435 Z M251.6939,119.5293 C251.7789,119.5453 251.8619,119.5683 251.9449,119.5983 C253.5649,120.1883 253.7209,122.4703 252.2939,123.4373 C251.5299,123.9543 250.8259,124.3833 250.0689,124.6753 C249.5879,124.8603 248.1029,123.7983 247.8999,123.0763 C247.4499,121.4763 249.8939,119.2003 251.6939,119.5293 Z M300.7104,119.4947 C301.0674,119.8637 300.5914,121.5997 299.9854,122.2357 C298.8634,123.4127 297.7674,123.7337 296.6494,123.1847 C294.8114,122.2827 294.9524,119.6777 296.7684,118.7307 C297.0504,118.5837 297.3404,118.4667 297.6414,118.3947 C298.5684,118.1737 300.0094,118.7687 300.7104,119.4947 Z M319.5889,118.4532 C320.2809,118.4152 321.0389,119.5952 322.3389,120.7282 C320.7309,121.5482 319.6249,122.5892 318.7489,122.4222 C317.9109,122.2632 317.3119,120.8482 316.6079,119.9842 C317.5989,119.4312 318.5709,118.5082 319.5889,118.4532 Z M354.1548,117.206 C355.1118,117.63 356.0868,119.443 355.9418,120.481 C355.8208,121.354 354.0938,122.003 353.7188,122.279 C351.7608,121.889 350.8158,121.853 350.0108,121.5 C349.8788,121.442 349.7488,121.378 349.6208,121.309 C348.3008,120.598 347.8498,118.882 348.7728,117.7 C348.9968,117.414 349.2418,117.196 349.5278,117.108 C350.9578,116.664 352.8268,116.617 354.1548,117.206 Z M210.0539,116.1862 C211.7529,116.9392 212.1839,117.8742 211.7909,120.1002 C211.5479,121.4702 209.8679,122.0572 208.8159,121.1462 C207.6219,120.1132 207.3489,119.1322 207.6619,117.4472 C207.8639,116.3522 209.0349,115.7342 210.0539,116.1862 Z M285.9966,116.5959 C286.8316,117.4709 287.7886,118.0259 287.8316,118.6429 C287.8756,119.2779 287.0266,119.9739 286.5686,120.6429 C285.7906,120.0619 285.0126,119.4799 284.2346,118.8979 C284.7276,118.2539 285.2216,117.6089 285.9966,116.5959 Z M224.8365,113.2638 C226.0885,113.8168 226.7015,115.2658 226.2015,116.5398 C225.2615,118.9368 224.1135,119.6578 222.5275,119.1808 C220.6945,118.6308 218.8195,115.5778 219.7325,114.0688 C221.3105,111.4638 222.9955,112.4498 224.8365,113.2638 Z M266.3678,115.5977 C266.4588,115.7907 266.4898,115.9507 266.4428,116.0827 C266.0438,117.2007 264.9848,118.0817 264.1948,119.0597 C263.5638,118.3497 262.3448,117.5627 262.4248,116.9467 C262.4818,116.5147 262.6458,116.0977 262.8828,115.6457 C263.6198,114.2397 265.6928,114.1617 266.3678,115.5977 Z M318.9463,110.9432 C319.4033,111.6202 319.3843,113.4822 318.9193,113.7712 C316.6113,115.2042 314.0863,116.2892 311.5923,117.5192 C310.5143,116.7212 309.3763,116.2922 309.3053,115.7302 C309.1973,114.8622 309.5423,113.4872 310.1833,113.0612 C312.0753,111.8032 314.1463,110.7362 316.2793,109.9612 C316.9993,109.7002 318.4973,110.2792 318.9463,110.9432 Z M368.7555,110.3937 C369.5885,110.8477 369.9565,112.1537 370.7695,113.4567 C369.4925,114.8127 368.5135,115.8517 367.5345,116.8907 C366.8925,115.8107 365.7755,114.7587 365.7075,113.6437 C365.5735,111.4027 367.3825,109.6437 368.7555,110.3937 Z M242.9147,108.4329 C243.6817,109.4489 244.8987,110.3809 245.1057,111.4999 C245.3827,112.9989 245.0867,115.1069 242.8637,114.8079 C242.2807,114.7299 241.7897,113.9699 241.2007,113.0439 C240.6037,112.1049 240.7067,110.8769 241.4527,110.0509 L242.9147,108.4329 Z M274.2656,108.4188 C274.2906,109.4328 275.1766,110.5128 274.9886,111.4208 C274.7876,112.3898 273.7776,113.1918 273.3316,113.7868 C270.8996,113.5178 268.1976,110.4038 268.4776,108.7398 C268.8126,106.7428 270.1216,105.4998 272.1186,105.4398 C274.0396,105.3818 274.2266,106.8268 274.2656,108.4188 Z M232.9261,106.8684 C233.4191,106.9864 233.8501,107.3644 234.3951,107.8844 C235.1371,108.5924 235.1791,109.7694 234.4891,110.5294 C233.5471,111.5654 232.6921,112.4884 231.7391,113.2974 C231.5851,113.4274 229.8451,112.3664 229.6601,111.6484 C229.2321,109.9824 231.6631,106.5684 232.9261,106.8684 Z M290.4971,106.184975 C291.5921,106.188 293.1081,107.375 293.6241,108.431 C293.9691,109.135 293.1621,111.086 292.3681,111.491 C291.3271,112.022 289.6431,111.927 288.5101,111.449 C288.0771,111.267 287.7151,110.917 287.3291,110.444 C286.3611,109.26 286.7731,107.459 288.1661,106.826 C288.9921,106.452 289.7451,106.182 290.4971,106.184975 Z M330.3374,106.6847 C331.9354,107.5297 331.9704,109.8447 330.4854,110.8747 C330.2364,111.0477 330.0064,111.1427 329.7864,111.1237 C328.9924,111.0547 327.7824,109.6667 327.7424,108.8097 C327.7064,108.0327 328.9264,106.6447 329.7274,106.5387 C329.9184,106.5137 330.1204,106.5697 330.3374,106.6847 Z M345.6109,101.735926 C350.0879,101.754 352.8329,103.663 352.6999,106.666 C352.6109,108.688 350.8569,110.333 348.7809,110.344072 C345.5899,110.361 341.9569,107.349 341.8729,104.615 C341.8149,102.73 343.1169,101.726 345.6109,101.735926 Z M307.0664,103.1584 C308.2364,104.4124 309.1004,105.3384 309.9634,106.2634 C309.1084,107.0004 308.0194,108.4914 307.4474,108.3134 C306.3404,107.9714 305.4174,106.7624 304.6974,105.7204 C304.5824,105.5534 305.9124,104.3874 307.0664,103.1584 Z M377.1245,106.5407 C376.1765,107.3687 375.4205,108.4147 375.0245,108.2917 C374.2535,108.0557 373.6845,107.1637 373.0325,106.5417 C373.6165,105.9887 374.1605,105.0587 374.7945,104.9927 C375.3835,104.9307 376.0685,105.7927 377.1245,106.5407 Z M260.4213,104.0829 C260.5443,104.4079 260.5893,104.6899 260.5263,104.9449 C260.2583,106.0209 258.8863,107.3989 257.8193,107.5709 C256.0083,107.8639 255.4293,106.1379 255.7923,104.6709 C255.8633,104.3849 255.9793,104.1099 256.1363,103.8229 C257.0993,102.0609 259.7113,102.2049 260.4213,104.0829 Z M335.7554,95.6725 C336.0374,96.1115 336.1714,96.6445 336.6494,97.8005 C335.6584,98.2335 334.2524,99.2585 333.8524,98.9545 C331.7664,97.3745 329.9544,98.1935 327.8164,98.7245 C326.5904,99.0285 324.4164,98.3135 323.7184,97.3195 C322.5234,95.6175 324.2954,94.4055 325.6474,93.5195 C328.7764,91.4685 333.7554,92.5545 335.7554,95.6725 Z M314.5687,87.7926 C316.0077,88.5036 317.5237,89.3876 318.4997,90.6016 C319.2807,91.5726 319.9947,93.6516 319.4957,94.3516 C318.7197,95.4396 316.8957,96.2496 315.4997,96.2736 C314.3997,96.2926 312.8767,95.1836 312.2717,94.1486 C311.6047,93.0066 311.7707,91.3786 311.5747,89.9626 C311.3357,87.9786 312.7537,86.8956 314.5687,87.7926 Z" id="Stroke" fill="#000" transform="translate(358.219773, 194.434256) rotate(4.000000) translate(-358.219773, -194.434256)"/>
            </g>
        </g>
        <g id="Face" transform="translate(324.000000, 111.000000) scale(1 1)" fill="#000">
            <g id="Face/Smile" stroke="none" stroke-width="1" fill="none" fill-rule="evenodd">
                <path d="M10.7342,34.9264 C11.8452,35.8024 12.5262,37.2014 13.5402,38.2294 C17.7942,42.5384 21.1822,42.7674 26.0072,39.1414 C27.1662,38.2714 28.1702,37.0864 29.4552,36.5374 C30.1972,36.2194 31.5272,36.6604 32.2562,37.2074 C32.5912,37.4604 32.4232,39.0534 31.9612,39.5854 C28.7942,43.2414 25.1052,46.0714 21.1732,46.1834 C15.3042,46.0914 8.5252,41.4164 7.2362,37.1764 C6.9842,36.3474 7.3132,34.7714 7.9042,34.4104 C8.5382,34.0234 10.0302,34.3724 10.7342,34.9264 Z M27.8689,11.0959 C29.0199,15.6489 30.1869,20.2019 31.1709,24.7919 C32.1349,29.2889 30.7839,30.8189 26.1689,30.5989 C24.1899,30.5049 22.1919,30.2639 20.2709,29.8059 C19.6339,29.6529 18.7869,28.5999 18.8029,27.9779 C18.8209,27.3179 19.6549,26.2549 20.2969,26.1139 C22.1859,25.6999 24.1569,25.6549 26.6209,25.4139 C25.5299,20.7949 24.4219,16.4859 23.5269,12.1319 C23.1629,10.3629 21.7969,7.7539 24.5809,7.0949 C27.2989,6.4499 27.4029,9.2489 27.8689,11.0959 Z M11.1513452,18.6999638 C12.2687564,22.2848354 10.454079,26.3141157 7.36997876,27.0954776 C5.20707056,27.6428606 3.38352499,26.4024463 2.60377214,23.8536388 C1.54995691,20.4107375 3.28559823,16.0368947 6.0719023,15.1130989 C8.20745996,14.4050301 10.2647214,15.8582679 11.1513452,18.6999638 Z M41.5476,15.3579 C44.0486,15.3779 46.2016,18.1629 46.0496,21.1819 C45.8886,24.4019 43.6766,26.8499 41.1566,26.5989 C38.7616,26.3589 37.3146,24.1149 37.4456,20.8429 C37.5776,17.5539 39.2336,15.3389 41.5476,15.3579 Z" id="Stroke" fill="#000"/>
            </g>
        </g>
    </g>
</svg>
