<svg viewBox="364.225 199.878 985.55 709.244" xmlns="http://www.w3.org/2000/svg" overflow="visible">
    <g id="Master/Stickers/Stats Graph" stroke="none" stroke-width="1" fill="none" fill-rule="evenodd">
        <g id="Interfae-Box-2" transform="translate(380.000000, 203.000000)">
            <rect id="Rectangle-Copy-5" fill="#090E2B" x="48" y="36" width="903" height="664" rx="64"/>
            <rect id="Rectangle-Copy" fill="#FFF" x="3" y="3" width="903" height="664" rx="64"/>
            <path d="M842,0 L67,0 C29.9969218,0 0,29.9969218 0,67 L0,603 C0,640.003078 29.9969218,670 67,670 L842,670 C879.003078,670 909,640.003078 909,603 L909,67 C909,29.9969218 879.003078,0 842,0 Z M67,6 L842,6 C875.68937,6 903,33.3106303 903,67 L903,603 C903,636.68937 875.68937,664 842,664 L67,664 C33.3106303,664 6,636.68937 6,603 L6,67 C6,33.3106303 33.3106303,6 67,6 Z" id="Rectangle-Copy-2" fill="#090E2B" fill-rule="nonzero"/>
            <path d="M673.652207,196.061892 C725.00645,183.450641 772.647582,240.93242 818.391391,365.938113 C819.53014,369.050011 817.930586,372.495842 814.818687,373.634591 C811.706789,374.77334 808.260958,373.173786 807.122209,370.061887 C763.365428,250.486217 719.224115,197.227172 676.514061,207.715638 C653.029605,213.482802 633.544648,228.317463 615.50167,252.517239 L614.256991,254.199974 C601.505445,271.579633 592.03819,288.909152 573.748724,326.316838 L567.518035,339.080312 C548.883429,377.093389 539.188692,394.511108 525.293009,412.958504 C505.414913,439.34793 483.31028,455.718327 456.236366,461.728764 C436.921829,466.016612 421.1782,458.232532 407.891528,440.305106 L407.489653,439.758748 C397.832146,426.529971 390.901407,411.491459 378.693953,380.142646 L374.912173,370.411723 C363.259876,340.542313 356.421447,325.666408 347.328808,312.632527 C335.853283,296.18289 323.479895,288.462539 308.325917,289.378699 C252.58721,292.748478 192.546484,355.571595 129.337009,478.620265 C127.822868,481.567814 124.205954,482.72982 121.258406,481.21568 C118.310857,479.701539 117.148851,476.084625 118.662991,473.137077 C183.658283,346.611991 246.260115,281.109083 307.601758,277.400569 C327.296605,276.209884 343.195562,285.995214 356.760264,305.18243 L357.170602,305.766737 C366.788118,319.553003 373.7892,334.631431 385.347233,364.145873 L390.576767,377.584411 C401.83789,406.3973 408.399469,420.546673 416.91497,432.316137 L417.181723,432.683171 C427.976656,447.469987 439.337483,453.188184 453.63567,450.013971 C477.606383,444.692448 497.417079,430.02091 515.708027,405.738522 L516.970246,404.049124 C529.761489,386.785973 539.264869,369.500642 557.378277,332.501458 L563.596726,319.761294 C582.202997,281.752737 591.841212,264.2714 605.445769,245.930132 L605.881319,245.344454 C625.460147,219.084752 647.152481,202.569527 673.652207,196.061892 Z" id="Path-9" fill="#FFB201" fill-rule="nonzero"/>
            <path d="M781.460434,208.362654 C782.299015,205.156808 785.577671,203.237761 788.783517,204.076343 C791.989362,204.914924 793.908409,208.19358 793.069828,211.399425 C755.865734,353.628422 708.054876,420.407249 647.872525,408.893115 C621.818313,403.908403 603.61089,404.829982 590.082856,410.798636 C579.665716,415.394744 572.383618,422.267538 562.160355,435.880495 L560.977924,437.467452 L554.884658,445.787282 C552.262038,449.355987 550.157275,452.139191 548.000044,454.856711 C539.000894,466.193172 530.125211,474.884446 519.015099,482.393565 C505.576907,491.476191 489.491953,498.227654 469.678748,502.626207 C451.420806,506.679489 435.763656,504.612783 421.299351,497.082719 C410.531188,491.476854 401.982197,484.235402 388.562743,470.523341 L382.286237,464.054711 C368.761913,450.109913 360.925256,443.124612 351.081975,437.229012 C338.568307,429.733993 325.246953,426.295033 309.42584,427.251526 C252.303605,430.704948 191.765128,458.910248 127.837444,512.097337 C125.290099,514.216699 121.506985,513.86975 119.387623,511.322404 C117.268261,508.775059 117.61521,504.991945 120.162556,502.872583 C185.906203,448.174633 248.743567,418.898266 308.701682,415.273396 C326.993171,414.167553 342.704286,418.223439 357.247948,426.934316 L358.226563,427.527077 C368.434553,433.780557 376.591104,441.017491 389.642393,454.406395 L395.931778,460.892513 L397.090755,462.080669 C409.692154,474.959181 417.495061,481.573475 426.840579,486.438716 C438.803082,492.666351 451.577524,494.352547 467.078052,490.911413 C485.453067,486.832141 500.138365,480.668166 512.295405,472.451447 C522.283653,465.700574 530.308857,457.84211 538.601368,447.39582 L539.687047,446.016317 C541.139122,444.155487 542.625291,442.18832 544.33855,439.870419 L551.136781,430.593726 L551.570699,430.00654 C563.436279,414.012575 572.147381,405.595804 585.238899,399.819743 C601.276933,392.743662 621.872845,391.701188 650.127475,397.106885 C701.367982,406.910259 745.733878,344.943112 781.460434,208.362654 Z" id="Path-9-Copy" fill="#009BA0" fill-rule="nonzero"/>
            <circle id="Oval" fill="#FF0057" cx="689.5" cy="200.5" r="25.5"/>
            <rect id="Rectangle" fill="#C7D2F2" fill-rule="nonzero" x="93" y="546" width="709" height="2"/>
        </g>
    </g>
</svg>
